<?xml version="1.0" encoding="utf-8"?>
<!-- Generator: Adobe Illustrator 23.1.1, SVG Export Plug-In . SVG Version: 6.00 Build 0)  -->
<svg version="1.1" xmlns="http://www.w3.org/2000/svg" xmlns:xlink="http://www.w3.org/1999/xlink" x="0px" y="0px"
	 viewBox="0 0 1190.55 841.89" style="enable-background:new 0 0 1190.55 841.89;" xml:space="preserve">
<style type="text/css">
	.st0{fill:#FFEB3B;}
	.st1{fill:#6201EE;}
	.st2{fill:#FB4D3D;}
	.st3{fill:#263238;}
	.st4{fill:#FFFFFF;}
	.st5{fill:#1DE9B6;}
</style>
<g id="Layer_2">
	<rect x="6310.89" y="1.86" class="st0" width="797.13" height="841.89"/>
	<rect x="6310.89" y="1839.63" class="st1" width="797.13" height="841.89"/>
	<rect x="6310.89" y="916" class="st2" width="797.13" height="841.89"/>
	<rect x="6310.89" y="-920" class="st3" width="797.13" height="841.89"/>
	<rect x="6310.89" y="-2780.05" class="st4" width="797.13" height="841.89"/>
	<rect x="6310.89" y="-1860.73" class="st4" width="797.13" height="841.89"/>
	<rect x="0" y="-2780.05" width="1190.55" height="841.89"/>
	<rect x="1257.22" y="-2780.05" class="st4" width="1190.55" height="841.89"/>
	<rect x="1257.22" y="-1860.73" class="st5" width="1190.55" height="841.89"/>
	<rect y="-1860.73" class="st3" width="1190.55" height="841.89"/>
	<rect y="-920" class="st0" width="1190.55" height="841.89"/>
	<rect x="1257.22" y="-920" class="st2" width="1190.55" height="841.89"/>
	<rect class="st1" width="1190.55" height="841.89"/>
</g>
<g id="Layer_1">
	<path d="M6854.37-2514.46c-38-35.47-88.95-57.25-144.92-57.25h0c-117.23,0-212.6,95.37-212.6,212.6c0,0,0,0,0,0
		c0,55.96,21.77,106.91,57.24,144.92c38.83,41.6,94.09,67.68,155.35,67.68c117.23,0,212.6-95.37,212.6-212.6
		C6922.05-2420.37,6895.97-2475.63,6854.37-2514.46z M6620.47-2456.77c5.43-18.15,19.08-32.73,36.58-40
		c21.43-8.9,45.78-13.81,71.98-10.21c92.5,12.74,116.86,85.69,116.86,85.69c-22.47-21.74-69.77-42.59-133.09-19.51
		s-72.52,83.62-72.52,83.62C6610.72-2395.62,6613.24-2432.62,6620.47-2456.77z M6737.18-2358.83c0,15.37-12.5,27.87-27.87,27.87
		c-15.37,0-27.87-12.5-27.87-27.87s12.5-27.87,27.87-27.87C6724.68-2386.71,6737.18-2374.2,6737.18-2358.83z M6616.27-2241.17
		c-18.24-14.35-34.44-33.18-44.1-57.8c-34.12-86.92,17.6-143.83,17.6-143.83c-7.97,30.23-3.03,81.69,48.06,125.64
		c51.09,43.95,108.4,22.37,108.4,22.37c-19.07,44.58-52.58,60.48-77.18,65.98C6650.55-2224.69,6631.17-2229.46,6616.27-2241.17z
		 M6858.01-2340.63c-2.45,23.08-9.8,46.8-25.52,68.08c-55.48,75.1-131.19,61.55-131.19,61.55c29.85-9.32,70.8-40.85,80.87-107.49
		c10.07-66.64-38.68-103.7-38.68-103.7c47.9-7.55,79.17,12.39,96.91,30.3C6853.75-2378.43,6860.01-2359.47,6858.01-2340.63z"/>
	<path d="M5920.59-2514.46c-38-35.47-88.95-57.25-144.92-57.25h0c-117.23,0-212.6,95.37-212.6,212.6c0,0,0,0,0,0
		c0,55.96,21.77,106.91,57.24,144.92c38.83,41.6,94.09,67.68,155.35,67.68c117.23,0,212.6-95.37,212.6-212.6
		C5988.27-2420.37,5962.19-2475.63,5920.59-2514.46z M5686.69-2456.77c5.43-18.15,19.08-32.73,36.58-40
		c21.43-8.9,45.78-13.81,71.98-10.21c92.5,12.74,116.86,85.69,116.86,85.69c-22.47-21.74-69.77-42.59-133.09-19.51
		c-63.32,23.08-72.52,83.62-72.52,83.62C5676.94-2395.62,5679.46-2432.62,5686.69-2456.77z M5803.41-2358.83
		c0,15.37-12.5,27.87-27.87,27.87c-15.37,0-27.87-12.5-27.87-27.87s12.5-27.87,27.87-27.87
		C5790.9-2386.71,5803.41-2374.2,5803.41-2358.83z M5682.5-2241.17c-18.24-14.35-34.44-33.18-44.1-57.8
		c-34.12-86.92,17.6-143.83,17.6-143.83c-7.97,30.23-3.03,81.69,48.06,125.64c51.09,43.95,108.4,22.37,108.4,22.37
		c-19.07,44.58-52.58,60.48-77.18,65.98C5716.78-2224.69,5697.39-2229.46,5682.5-2241.17z M5924.23-2340.63
		c-2.45,23.08-9.8,46.8-25.52,68.08c-55.48,75.1-131.19,61.55-131.19,61.55c29.85-9.32,70.8-40.85,80.87-107.49
		c10.07-66.64-38.68-103.7-38.68-103.7c47.9-7.55,79.17,12.39,96.91,30.3C5919.97-2378.43,5926.23-2359.47,5924.23-2340.63z"/>
	<path class="st4" d="M6854.37-1595.13c-38-35.47-88.95-57.25-144.92-57.25h0c-117.23,0-212.6,95.37-212.6,212.6c0,0,0,0,0,0
		c0,55.96,21.77,106.91,57.24,144.92c38.83,41.6,94.09,67.68,155.35,67.68c117.23,0,212.6-95.37,212.6-212.6
		C6922.05-1501.04,6895.97-1556.3,6854.37-1595.13z M6620.47-1537.45c5.43-18.15,19.08-32.73,36.58-40
		c21.43-8.9,45.78-13.81,71.98-10.21c92.5,12.74,116.86,85.69,116.86,85.69c-22.47-21.74-69.77-42.59-133.09-19.52
		s-72.52,83.62-72.52,83.62C6610.72-1476.29,6613.24-1513.29,6620.47-1537.45z M6737.18-1439.51c0,15.37-12.5,27.87-27.87,27.87
		c-15.37,0-27.87-12.5-27.87-27.87s12.5-27.87,27.87-27.87C6724.68-1467.38,6737.18-1454.88,6737.18-1439.51z M6616.27-1321.85
		c-18.24-14.35-34.44-33.18-44.1-57.8c-34.12-86.92,17.6-143.83,17.6-143.83c-7.97,30.23-3.03,81.69,48.06,125.64
		c51.09,43.95,108.4,22.37,108.4,22.37c-19.07,44.58-52.58,60.48-77.18,65.98C6650.55-1305.36,6631.17-1310.14,6616.27-1321.85z
		 M6858.01-1421.3c-2.45,23.08-9.8,46.8-25.52,68.08c-55.48,75.1-131.19,61.55-131.19,61.55c29.85-9.32,70.8-40.85,80.87-107.49
		c10.07-66.64-38.68-103.7-38.68-103.7c47.9-7.55,79.17,12.39,96.91,30.3C6853.75-1459.1,6860.01-1440.15,6858.01-1421.3z"/>
	<path class="st4" d="M5920.59-1595.13c-38-35.47-88.95-57.25-144.92-57.25h0c-117.23,0-212.6,95.37-212.6,212.6c0,0,0,0,0,0
		c0,55.96,21.77,106.91,57.24,144.92c38.83,41.6,94.09,67.68,155.35,67.68c117.23,0,212.6-95.37,212.6-212.6
		C5988.27-1501.04,5962.19-1556.3,5920.59-1595.13z M5686.69-1537.45c5.43-18.15,19.08-32.73,36.58-40
		c21.43-8.9,45.78-13.81,71.98-10.21c92.5,12.74,116.86,85.69,116.86,85.69c-22.47-21.74-69.77-42.59-133.09-19.52
		c-63.32,23.08-72.52,83.62-72.52,83.62C5676.94-1476.29,5679.46-1513.29,5686.69-1537.45z M5803.41-1439.51
		c0,15.37-12.5,27.87-27.87,27.87c-15.37,0-27.87-12.5-27.87-27.87s12.5-27.87,27.87-27.87
		C5790.9-1467.38,5803.41-1454.88,5803.41-1439.51z M5682.5-1321.85c-18.24-14.35-34.44-33.18-44.1-57.8
		c-34.12-86.92,17.6-143.83,17.6-143.83c-7.97,30.23-3.03,81.69,48.06,125.64c51.09,43.95,108.4,22.37,108.4,22.37
		c-19.07,44.58-52.58,60.48-77.18,65.98C5716.78-1305.36,5697.39-1310.14,5682.5-1321.85z M5924.23-1421.3
		c-2.45,23.08-9.8,46.8-25.52,68.08c-55.48,75.1-131.19,61.55-131.19,61.55c29.85-9.32,70.8-40.85,80.87-107.49
		c10.07-66.64-38.68-103.7-38.68-103.7c47.9-7.55,79.17,12.39,96.91,30.3C5919.97-1459.1,5926.23-1440.15,5924.23-1421.3z"/>
	<path class="st3" d="M5920.59-654.41c-38-35.47-88.95-57.25-144.92-57.25h0c-117.23,0-212.6,95.37-212.6,212.6c0,0,0,0,0,0
		c0,55.96,21.77,106.91,57.24,144.92c38.83,41.6,94.09,67.68,155.35,67.68c117.23,0,212.6-95.37,212.6-212.6
		C5988.27-560.32,5962.19-615.58,5920.59-654.41z M5686.69-596.72c5.43-18.15,19.08-32.73,36.58-40
		c21.43-8.9,45.78-13.81,71.98-10.21c92.5,12.74,116.86,85.69,116.86,85.69c-22.47-21.74-69.77-42.59-133.09-19.52
		c-63.32,23.08-72.52,83.62-72.52,83.62C5676.94-535.57,5679.46-572.57,5686.69-596.72z M5803.41-498.78
		c0,15.37-12.5,27.87-27.87,27.87c-15.37,0-27.87-12.5-27.87-27.87c0-15.37,12.5-27.87,27.87-27.87
		C5790.9-526.66,5803.41-514.15,5803.41-498.78z M5682.5-381.12c-18.24-14.35-34.44-33.18-44.1-57.8
		c-34.12-86.92,17.6-143.83,17.6-143.83c-7.97,30.23-3.03,81.69,48.06,125.64c51.09,43.95,108.4,22.37,108.4,22.37
		c-19.07,44.58-52.58,60.48-77.18,65.98C5716.78-364.64,5697.39-369.41,5682.5-381.12z M5924.23-480.58
		c-2.45,23.08-9.8,46.8-25.52,68.08c-55.48,75.1-131.19,61.55-131.19,61.55c29.85-9.32,70.8-40.85,80.87-107.49
		c10.07-66.64-38.68-103.7-38.68-103.7c47.9-7.55,79.17,12.39,96.91,30.3C5919.97-518.38,5926.23-499.42,5924.23-480.58z"/>
	<path class="st4" d="M6854.37-654.41c-38-35.47-88.95-57.25-144.92-57.25h0c-117.23,0-212.6,95.37-212.6,212.6c0,0,0,0,0,0
		c0,55.96,21.77,106.91,57.24,144.92c38.83,41.6,94.09,67.68,155.35,67.68c117.23,0,212.6-95.37,212.6-212.6
		C6922.05-560.32,6895.97-615.58,6854.37-654.41z M6620.47-596.72c5.43-18.15,19.08-32.73,36.58-40
		c21.43-8.9,45.78-13.81,71.98-10.21c92.5,12.74,116.86,85.69,116.86,85.69c-22.47-21.74-69.77-42.59-133.09-19.52
		s-72.52,83.62-72.52,83.62C6610.72-535.57,6613.24-572.57,6620.47-596.72z M6737.18-498.78c0,15.37-12.5,27.87-27.87,27.87
		c-15.37,0-27.87-12.5-27.87-27.87c0-15.37,12.5-27.87,27.87-27.87C6724.68-526.66,6737.18-514.15,6737.18-498.78z M6616.27-381.12
		c-18.24-14.35-34.44-33.18-44.1-57.8c-34.12-86.92,17.6-143.83,17.6-143.83c-7.97,30.23-3.03,81.69,48.06,125.64
		c51.09,43.95,108.4,22.37,108.4,22.37c-19.07,44.58-52.58,60.48-77.18,65.98C6650.55-364.64,6631.17-369.41,6616.27-381.12z
		 M6858.01-480.58c-2.45,23.08-9.8,46.8-25.52,68.08c-55.48,75.1-131.19,61.55-131.19,61.55c29.85-9.32,70.8-40.85,80.87-107.49
		c10.07-66.64-38.68-103.7-38.68-103.7c47.9-7.55,79.17,12.39,96.91,30.3C6853.75-518.38,6860.01-499.42,6858.01-480.58z"/>
	<path class="st0" d="M5920.59,265.59c-38-35.47-88.95-57.25-144.92-57.25h0c-117.23,0-212.6,95.37-212.6,212.6c0,0,0,0,0,0
		c0,55.96,21.77,106.91,57.24,144.92c38.83,41.6,94.09,67.68,155.35,67.68c117.23,0,212.6-95.37,212.6-212.6
		C5988.27,359.68,5962.19,304.42,5920.59,265.59z M5686.69,323.28c5.43-18.15,19.08-32.73,36.58-40
		c21.43-8.9,45.78-13.81,71.98-10.21c92.5,12.74,116.86,85.69,116.86,85.69c-22.47-21.74-69.77-42.59-133.09-19.52
		c-63.32,23.08-72.52,83.62-72.52,83.62C5676.94,384.43,5679.46,347.43,5686.69,323.28z M5803.41,421.22
		c0,15.37-12.5,27.87-27.87,27.87c-15.37,0-27.87-12.5-27.87-27.87c0-15.37,12.5-27.87,27.87-27.87
		C5790.9,393.34,5803.41,405.85,5803.41,421.22z M5682.5,538.88c-18.24-14.35-34.44-33.18-44.1-57.8
		c-34.12-86.92,17.6-143.83,17.6-143.83c-7.97,30.23-3.03,81.69,48.06,125.64c51.09,43.95,108.4,22.37,108.4,22.37
		c-19.07,44.58-52.58,60.48-77.18,65.98C5716.78,555.36,5697.39,550.59,5682.5,538.88z M5924.23,439.42
		c-2.45,23.08-9.8,46.8-25.52,68.08c-55.48,75.1-131.19,61.55-131.19,61.55c29.85-9.32,70.8-40.85,80.87-107.49
		c10.07-66.64-38.68-103.7-38.68-103.7c47.9-7.55,79.17,12.39,96.91,30.3C5919.97,401.62,5926.23,420.58,5924.23,439.42z"/>
	<path class="st4" d="M6854.37,265.59c-38-35.47-88.95-57.25-144.92-57.25h0c-117.23,0-212.6,95.37-212.6,212.6c0,0,0,0,0,0
		c0,55.96,21.77,106.91,57.24,144.92c38.83,41.6,94.09,67.68,155.35,67.68c117.23,0,212.6-95.37,212.6-212.6
		C6922.05,359.68,6895.97,304.42,6854.37,265.59z M6620.47,323.28c5.43-18.15,19.08-32.73,36.58-40
		c21.43-8.9,45.78-13.81,71.98-10.21c92.5,12.74,116.86,85.69,116.86,85.69c-22.47-21.74-69.77-42.59-133.09-19.52
		s-72.52,83.62-72.52,83.62C6610.72,384.43,6613.24,347.43,6620.47,323.28z M6737.18,421.22c0,15.37-12.5,27.87-27.87,27.87
		c-15.37,0-27.87-12.5-27.87-27.87c0-15.37,12.5-27.87,27.87-27.87C6724.68,393.34,6737.18,405.85,6737.18,421.22z M6616.27,538.88
		c-18.24-14.35-34.44-33.18-44.1-57.8c-34.12-86.92,17.6-143.83,17.6-143.83c-7.97,30.23-3.03,81.69,48.06,125.64
		c51.09,43.95,108.4,22.37,108.4,22.37c-19.07,44.58-52.58,60.48-77.18,65.98C6650.55,555.36,6631.17,550.59,6616.27,538.88z
		 M6858.01,439.42c-2.45,23.08-9.8,46.8-25.52,68.08c-55.48,75.1-131.19,61.55-131.19,61.55c29.85-9.32,70.8-40.85,80.87-107.49
		c10.07-66.64-38.68-103.7-38.68-103.7c47.9-7.55,79.17,12.39,96.91,30.3C6853.75,401.62,6860.01,420.58,6858.01,439.42z"/>
	<path class="st2" d="M5920.59,1181.59c-38-35.47-88.95-57.25-144.92-57.25h0c-117.23,0-212.6,95.37-212.6,212.6c0,0,0,0,0,0
		c0,55.96,21.77,106.91,57.24,144.92c38.83,41.6,94.09,67.68,155.35,67.68c117.23,0,212.6-95.37,212.6-212.6
		C5988.27,1275.68,5962.19,1220.42,5920.59,1181.59z M5686.69,1239.28c5.43-18.15,19.08-32.73,36.58-40
		c21.43-8.9,45.78-13.81,71.98-10.21c92.5,12.74,116.86,85.69,116.86,85.69c-22.47-21.74-69.77-42.59-133.09-19.52
		c-63.32,23.08-72.52,83.62-72.52,83.62C5676.94,1300.43,5679.46,1263.43,5686.69,1239.28z M5803.41,1337.22
		c0,15.37-12.5,27.87-27.87,27.87c-15.37,0-27.87-12.5-27.87-27.87c0-15.37,12.5-27.87,27.87-27.87
		C5790.9,1309.34,5803.41,1321.85,5803.41,1337.22z M5682.5,1454.88c-18.24-14.35-34.44-33.18-44.1-57.8
		c-34.12-86.92,17.6-143.83,17.6-143.83c-7.97,30.23-3.03,81.69,48.06,125.64c51.09,43.95,108.4,22.37,108.4,22.37
		c-19.07,44.58-52.58,60.48-77.18,65.98C5716.78,1471.36,5697.39,1466.59,5682.5,1454.88z M5924.23,1355.42
		c-2.45,23.08-9.8,46.8-25.52,68.08c-55.48,75.1-131.19,61.55-131.19,61.55c29.85-9.32,70.8-40.85,80.87-107.49
		c10.07-66.64-38.68-103.7-38.68-103.7c47.9-7.55,79.17,12.39,96.91,30.3C5919.97,1317.62,5926.23,1336.58,5924.23,1355.42z"/>
	<path class="st4" d="M6854.37,1181.59c-38-35.47-88.95-57.25-144.92-57.25h0c-117.23,0-212.6,95.37-212.6,212.6c0,0,0,0,0,0
		c0,55.96,21.77,106.91,57.24,144.92c38.83,41.6,94.09,67.68,155.35,67.68c117.23,0,212.6-95.37,212.6-212.6
		C6922.05,1275.68,6895.97,1220.42,6854.37,1181.59z M6620.47,1239.28c5.43-18.15,19.08-32.73,36.58-40
		c21.43-8.9,45.78-13.81,71.98-10.21c92.5,12.74,116.86,85.69,116.86,85.69c-22.47-21.74-69.77-42.59-133.09-19.52
		s-72.52,83.62-72.52,83.62C6610.72,1300.43,6613.24,1263.43,6620.47,1239.28z M6737.18,1337.22c0,15.37-12.5,27.87-27.87,27.87
		c-15.37,0-27.87-12.5-27.87-27.87c0-15.37,12.5-27.87,27.87-27.87C6724.68,1309.34,6737.18,1321.85,6737.18,1337.22z
		 M6616.27,1454.88c-18.24-14.35-34.44-33.18-44.1-57.8c-34.12-86.92,17.6-143.83,17.6-143.83c-7.97,30.23-3.03,81.69,48.06,125.64
		c51.09,43.95,108.4,22.37,108.4,22.37c-19.07,44.58-52.58,60.48-77.18,65.98C6650.55,1471.36,6631.17,1466.59,6616.27,1454.88z
		 M6858.01,1355.42c-2.45,23.08-9.8,46.8-25.52,68.08c-55.48,75.1-131.19,61.55-131.19,61.55c29.85-9.32,70.8-40.85,80.87-107.49
		c10.07-66.64-38.68-103.7-38.68-103.7c47.9-7.55,79.17,12.39,96.91,30.3C6853.75,1317.62,6860.01,1336.58,6858.01,1355.42z"/>
	<path class="st1" d="M5920.59,2105.22c-38-35.47-88.95-57.25-144.92-57.25h0c-117.23,0-212.6,95.37-212.6,212.6c0,0,0,0,0,0
		c0,55.96,21.77,106.91,57.24,144.92c38.83,41.6,94.09,67.68,155.35,67.68c117.23,0,212.6-95.37,212.6-212.6
		C5988.27,2199.31,5962.19,2144.05,5920.59,2105.22z M5686.69,2162.91c5.43-18.15,19.08-32.73,36.58-40
		c21.43-8.9,45.78-13.81,71.98-10.21c92.5,12.74,116.86,85.69,116.86,85.69c-22.47-21.74-69.77-42.59-133.09-19.52
		c-63.32,23.08-72.52,83.62-72.52,83.62C5676.94,2224.06,5679.46,2187.06,5686.69,2162.91z M5803.41,2260.84
		c0,15.37-12.5,27.87-27.87,27.87c-15.37,0-27.87-12.5-27.87-27.87s12.5-27.87,27.87-27.87
		C5790.9,2232.97,5803.41,2245.47,5803.41,2260.84z M5682.5,2378.51c-18.24-14.35-34.44-33.18-44.1-57.8
		c-34.12-86.92,17.6-143.83,17.6-143.83c-7.97,30.23-3.03,81.69,48.06,125.64c51.09,43.95,108.4,22.37,108.4,22.37
		c-19.07,44.58-52.58,60.48-77.18,65.98C5716.78,2394.99,5697.39,2390.22,5682.5,2378.51z M5924.23,2279.05
		c-2.45,23.08-9.8,46.8-25.52,68.08c-55.48,75.1-131.19,61.55-131.19,61.55c29.85-9.32,70.8-40.85,80.87-107.49
		c10.07-66.64-38.68-103.7-38.68-103.7c47.9-7.55,79.17,12.39,96.91,30.3C5919.97,2241.25,5926.23,2260.21,5924.23,2279.05z"/>
	<path class="st4" d="M6854.37,2105.22c-38-35.47-88.95-57.25-144.92-57.25h0c-117.23,0-212.6,95.37-212.6,212.6c0,0,0,0,0,0
		c0,55.96,21.77,106.91,57.24,144.92c38.83,41.6,94.09,67.68,155.35,67.68c117.23,0,212.6-95.37,212.6-212.6
		C6922.05,2199.31,6895.97,2144.05,6854.37,2105.22z M6620.47,2162.91c5.43-18.15,19.08-32.73,36.58-40
		c21.43-8.9,45.78-13.81,71.98-10.21c92.5,12.74,116.86,85.69,116.86,85.69c-22.47-21.74-69.77-42.59-133.09-19.52
		s-72.52,83.62-72.52,83.62C6610.72,2224.06,6613.24,2187.06,6620.47,2162.91z M6737.18,2260.84c0,15.37-12.5,27.87-27.87,27.87
		c-15.37,0-27.87-12.5-27.87-27.87s12.5-27.87,27.87-27.87C6724.68,2232.97,6737.18,2245.47,6737.18,2260.84z M6616.27,2378.51
		c-18.24-14.35-34.44-33.18-44.1-57.8c-34.12-86.92,17.6-143.83,17.6-143.83c-7.97,30.23-3.03,81.69,48.06,125.64
		c51.09,43.95,108.4,22.37,108.4,22.37c-19.07,44.58-52.58,60.48-77.18,65.98C6650.55,2394.99,6631.17,2390.22,6616.27,2378.51z
		 M6858.01,2279.05c-2.45,23.08-9.8,46.8-25.52,68.08c-55.48,75.1-131.19,61.55-131.19,61.55c29.85-9.32,70.8-40.85,80.87-107.49
		c10.07-66.64-38.68-103.7-38.68-103.7c47.9-7.55,79.17,12.39,96.91,30.3C6853.75,2241.25,6860.01,2260.21,6858.01,2279.05z"/>
	<path d="M1565.38-6209.04c-15.45-14.42-36.16-23.27-58.91-23.27l0,0c-47.66,0-86.43,38.77-86.43,86.42c0,0,0,0,0,0
		c0,22.75,8.85,43.46,23.27,58.91c15.79,16.91,38.25,27.51,63.15,27.51c47.65,0,86.42-38.77,86.42-86.43
		C1592.9-6170.79,1582.3-6193.25,1565.38-6209.04z M1470.3-6185.59c2.21-7.38,7.76-13.31,14.87-16.26
		c8.71-3.62,18.61-5.62,29.26-4.15c37.6,5.18,47.51,34.83,47.51,34.83c-9.14-8.84-28.36-17.31-54.1-7.93
		c-25.74,9.38-29.48,33.99-29.48,33.99C1466.34-6160.73,1467.36-6175.77,1470.3-6185.59z M1517.75-6145.77
		c0,6.25-5.08,11.33-11.33,11.33c-6.25,0-11.33-5.08-11.33-11.33s5.08-11.33,11.33-11.33
		C1512.66-6157.1,1517.75-6152.02,1517.75-6145.77z M1468.59-6097.94c-7.42-5.83-14-13.49-17.93-23.5
		c-13.87-35.33,7.16-58.47,7.16-58.47c-3.24,12.29-1.23,33.21,19.54,51.07c20.77,17.87,44.07,9.09,44.07,9.09
		c-7.75,18.12-21.37,24.58-31.38,26.82C1482.53-6091.24,1474.65-6093.18,1468.59-6097.94z M1566.86-6138.37
		c-1,9.38-3.98,19.03-10.37,27.68c-22.55,30.53-53.33,25.02-53.33,25.02c12.13-3.79,28.78-16.61,32.88-43.7
		c4.09-27.09-15.72-42.16-15.72-42.16c19.47-3.07,32.19,5.04,39.4,12.32C1565.13-6153.74,1567.68-6146.03,1566.86-6138.37z"/>
	<path d="M1660.88-6200.96h-31.35v111.21h19.65v-41.65h10.92c19.18,0,27.61-13.73,27.61-36.03
		C1687.71-6188.64,1679.13-6200.96,1660.88-6200.96z M1657.3-6147.62h-8.11v-36.97h8.42c7.8,0,10.92,6.24,10.92,17.62
		C1668.53-6154.01,1664.78-6147.62,1657.3-6147.62z"/>
	<path d="M1727.18-6114.7c0,5.93-3.43,11.23-8.42,11.23c-5.3,0-7.18-3.59-7.18-8.11v-61.14h-18.09v67.85
		c0,10.45,7.17,16.85,16.38,16.85c7.33,0,13.57-3.59,17.47-9.98h0.16v8.27h17.78v-82.98h-18.09V-6114.7z"/>
	<path d="M1822.63-6174.6c-7.33,0-13.57,3.28-18.25,9.98h-0.16c-2.34-6.55-8.27-9.98-15.44-9.98c-7.17,0-13.41,3.28-17.31,9.67
		h-0.16v-7.8h-17.94v82.98h18.41v-58.18c0-5.93,3.28-11.23,8.27-11.23c5.15,0,7.02,3.74,7.02,8.27v61.14h18.4v-58.65
		c0-5.93,3.43-10.76,8.27-10.76c5.3,0,7.17,3.74,7.17,8.42v60.99h18.25v-68.16C1839.17-6168.2,1831.84-6174.6,1822.63-6174.6z"/>
	<path d="M1880.97-6174.44c-5.62,0-12.63,3.43-16.07,9.51h-0.31v-7.8h-17.94v108.09h18.41v-30.73h0.16
		c3.28,4.83,8.89,7.17,14.04,7.17c12.48,0,19.5-8.73,19.5-19.65v-46.79C1898.75-6165.55,1893.61-6174.44,1880.97-6174.44z
		 M1880.5-6110.96c0,5.46-2.96,8.11-7.17,8.11c-4.52,0-8.27-3.59-8.27-9.67v-36.34c0-7.02,3.59-10.76,8.27-10.76
		s7.17,3.12,7.17,7.96V-6110.96z"/>
	<path d="M1930.26-6174.6c-14.51,0-25.89,9.36-25.89,25.89v36.03c0,16.53,10.92,24.64,26.36,24.64c8.73,0,16.07-1.87,22.46-4.99
		l-3.43-13.26c-3.9,1.4-9.83,3.28-15.44,3.28c-7.49,0-11.7-4.06-11.7-11.85v-9.98h31.51v-25.58
		C1954.12-6164.93,1945.39-6174.6,1930.26-6174.6z M1937.75-6137.94h-15.13v-13.26c0-4.52,2.34-8.73,7.64-8.73
		c5.46,0,7.49,4.05,7.49,8.58V-6137.94z"/>
	<path d="M1992.96-6200.96v33.53h-0.16c-3.59-4.99-8.89-7.17-14.35-7.17c-12.17,0-19.34,8.73-19.34,19.5v47.1
		c0,10.76,5.3,19.65,18.41,19.65c5.46,0,12.17-2.96,15.91-9.51h0.47l0.31,8.11h17v-111.21H1992.96z M1993.12-6114.39
		c0,6.4-3.9,11.23-8.73,11.23c-4.52,0-7.02-3.43-7.02-8.42v-40.08c0-5.93,2.96-8.58,7.17-8.58c4.37,0,8.58,4.21,8.58,10.29V-6114.39
		z"/>
	<path d="M1565.38-6209.04c-15.45-14.42-36.16-23.27-58.91-23.27l0,0c-47.66,0-86.43,38.77-86.43,86.42c0,0,0,0,0,0
		c0,22.75,8.85,43.46,23.27,58.91c15.79,16.91,38.25,27.51,63.15,27.51c47.65,0,86.42-38.77,86.42-86.43
		C1592.9-6170.79,1582.3-6193.25,1565.38-6209.04z M1470.3-6185.59c2.21-7.38,7.76-13.31,14.87-16.26
		c8.71-3.62,18.61-5.62,29.26-4.15c37.6,5.18,47.51,34.83,47.51,34.83c-9.14-8.84-28.36-17.31-54.1-7.93
		c-25.74,9.38-29.48,33.99-29.48,33.99C1466.34-6160.73,1467.36-6175.77,1470.3-6185.59z M1517.75-6145.77
		c0,6.25-5.08,11.33-11.33,11.33c-6.25,0-11.33-5.08-11.33-11.33s5.08-11.33,11.33-11.33
		C1512.66-6157.1,1517.75-6152.02,1517.75-6145.77z M1468.59-6097.94c-7.42-5.83-14-13.49-17.93-23.5
		c-13.87-35.33,7.16-58.47,7.16-58.47c-3.24,12.29-1.23,33.21,19.54,51.07c20.77,17.87,44.07,9.09,44.07,9.09
		c-7.75,18.12-21.37,24.58-31.38,26.82C1482.53-6091.24,1474.65-6093.18,1468.59-6097.94z M1566.86-6138.37
		c-1,9.38-3.98,19.03-10.37,27.68c-22.55,30.53-53.33,25.02-53.33,25.02c12.13-3.79,28.78-16.61,32.88-43.7
		c4.09-27.09-15.72-42.16-15.72-42.16c19.47-3.07,32.19,5.04,39.4,12.32C1565.13-6153.74,1567.68-6146.03,1566.86-6138.37z"/>
	<path d="M1660.88-6200.96h-31.35v111.21h19.65v-41.65h10.92c19.18,0,27.61-13.73,27.61-36.03
		C1687.71-6188.64,1679.13-6200.96,1660.88-6200.96z M1657.3-6147.62h-8.11v-36.97h8.42c7.8,0,10.92,6.24,10.92,17.62
		C1668.53-6154.01,1664.78-6147.62,1657.3-6147.62z"/>
	<path d="M1727.18-6114.7c0,5.93-3.43,11.23-8.42,11.23c-5.3,0-7.18-3.59-7.18-8.11v-61.14h-18.09v67.85
		c0,10.45,7.17,16.85,16.38,16.85c7.33,0,13.57-3.59,17.47-9.98h0.16v8.27h17.78v-82.98h-18.09V-6114.7z"/>
	<path d="M1822.63-6174.6c-7.33,0-13.57,3.28-18.25,9.98h-0.16c-2.34-6.55-8.27-9.98-15.44-9.98c-7.17,0-13.41,3.28-17.31,9.67
		h-0.16v-7.8h-17.94v82.98h18.41v-58.18c0-5.93,3.28-11.23,8.27-11.23c5.15,0,7.02,3.74,7.02,8.27v61.14h18.4v-58.65
		c0-5.93,3.43-10.76,8.27-10.76c5.3,0,7.17,3.74,7.17,8.42v60.99h18.25v-68.16C1839.17-6168.2,1831.84-6174.6,1822.63-6174.6z"/>
	<path d="M1880.97-6174.44c-5.62,0-12.63,3.43-16.07,9.51h-0.31v-7.8h-17.94v108.09h18.41v-30.73h0.16
		c3.28,4.83,8.89,7.17,14.04,7.17c12.48,0,19.5-8.73,19.5-19.65v-46.79C1898.75-6165.55,1893.61-6174.44,1880.97-6174.44z
		 M1880.5-6110.96c0,5.46-2.96,8.11-7.17,8.11c-4.52,0-8.27-3.59-8.27-9.67v-36.34c0-7.02,3.59-10.76,8.27-10.76
		s7.17,3.12,7.17,7.96V-6110.96z"/>
	<path d="M1930.26-6174.6c-14.51,0-25.89,9.36-25.89,25.89v36.03c0,16.53,10.92,24.64,26.36,24.64c8.73,0,16.07-1.87,22.46-4.99
		l-3.43-13.26c-3.9,1.4-9.83,3.28-15.44,3.28c-7.49,0-11.7-4.06-11.7-11.85v-9.98h31.51v-25.58
		C1954.12-6164.93,1945.39-6174.6,1930.26-6174.6z M1937.75-6137.94h-15.13v-13.26c0-4.52,2.34-8.73,7.64-8.73
		c5.46,0,7.49,4.05,7.49,8.58V-6137.94z"/>
	<path d="M1992.96-6200.96v33.53h-0.16c-3.59-4.99-8.89-7.17-14.35-7.17c-12.17,0-19.34,8.73-19.34,19.5v47.1
		c0,10.76,5.3,19.65,18.41,19.65c5.46,0,12.17-2.96,15.91-9.51h0.47l0.31,8.11h17v-111.21H1992.96z M1993.12-6114.39
		c0,6.4-3.9,11.23-8.73,11.23c-4.52,0-7.02-3.43-7.02-8.42v-40.08c0-5.93,2.96-8.58,7.17-8.58c4.37,0,8.58,4.21,8.58,10.29V-6114.39
		z"/>
	<path d="M2822.6-6209.04c-15.45-14.42-36.16-23.27-58.91-23.27l0,0c-47.66,0-86.43,38.77-86.43,86.42c0,0,0,0,0,0
		c0,22.75,8.85,43.46,23.27,58.91c15.79,16.91,38.25,27.51,63.15,27.51c47.65,0,86.42-38.77,86.42-86.43
		C2850.11-6170.79,2839.51-6193.25,2822.6-6209.04z M2727.52-6185.59c2.21-7.38,7.76-13.31,14.87-16.26
		c8.71-3.62,18.61-5.62,29.26-4.15c37.6,5.18,47.51,34.83,47.51,34.83c-9.14-8.84-28.36-17.31-54.1-7.93
		c-25.74,9.38-29.48,33.99-29.48,33.99C2723.55-6160.73,2724.58-6175.77,2727.52-6185.59z M2774.96-6145.77
		c0,6.25-5.08,11.33-11.33,11.33c-6.25,0-11.33-5.08-11.33-11.33s5.08-11.33,11.33-11.33
		C2769.88-6157.1,2774.96-6152.02,2774.96-6145.77z M2725.81-6097.94c-7.42-5.83-14-13.49-17.93-23.5
		c-13.87-35.33,7.16-58.47,7.16-58.47c-3.24,12.29-1.23,33.21,19.54,51.07c20.77,17.87,44.07,9.09,44.07,9.09
		c-7.75,18.12-21.37,24.58-31.38,26.82C2739.75-6091.24,2731.87-6093.18,2725.81-6097.94z M2824.08-6138.37
		c-1,9.38-3.98,19.03-10.37,27.68c-22.55,30.53-53.33,25.02-53.33,25.02c12.13-3.79,28.78-16.61,32.88-43.7
		c4.09-27.09-15.72-42.16-15.72-42.16c19.47-3.07,32.19,5.04,39.4,12.32C2822.35-6153.74,2824.89-6146.03,2824.08-6138.37z"/>
	<path d="M2918.1-6200.96h-31.35v111.21h19.65v-41.65h10.92c19.18,0,27.61-13.73,27.61-36.03
		C2944.93-6188.64,2936.35-6200.96,2918.1-6200.96z M2914.51-6147.62h-8.11v-36.97h8.42c7.8,0,10.92,6.24,10.92,17.62
		C2925.74-6154.01,2922-6147.62,2914.51-6147.62z"/>
	<path d="M2984.39-6114.7c0,5.93-3.43,11.23-8.42,11.23c-5.3,0-7.18-3.59-7.18-8.11v-61.14h-18.09v67.85
		c0,10.45,7.17,16.85,16.38,16.85c7.33,0,13.57-3.59,17.47-9.98h0.16v8.27h17.78v-82.98h-18.09V-6114.7z"/>
	<path d="M3079.85-6174.6c-7.33,0-13.57,3.28-18.25,9.98h-0.16c-2.34-6.55-8.27-9.98-15.44-9.98c-7.17,0-13.41,3.28-17.31,9.67
		h-0.16v-7.8h-17.94v82.98H3029v-58.18c0-5.93,3.28-11.23,8.27-11.23c5.15,0,7.02,3.74,7.02,8.27v61.14h18.4v-58.65
		c0-5.93,3.43-10.76,8.27-10.76c5.3,0,7.17,3.74,7.17,8.42v60.99h18.25v-68.16C3096.38-6168.2,3089.05-6174.6,3079.85-6174.6z"/>
	<path d="M3138.19-6174.44c-5.62,0-12.63,3.43-16.07,9.51h-0.31v-7.8h-17.94v108.09h18.41v-30.73h0.16
		c3.28,4.83,8.89,7.17,14.04,7.17c12.48,0,19.5-8.73,19.5-19.65v-46.79C3155.97-6165.55,3150.82-6174.44,3138.19-6174.44z
		 M3137.72-6110.96c0,5.46-2.96,8.11-7.17,8.11c-4.52,0-8.27-3.59-8.27-9.67v-36.34c0-7.02,3.59-10.76,8.27-10.76
		s7.17,3.12,7.17,7.96V-6110.96z"/>
	<path d="M3187.48-6174.6c-14.51,0-25.89,9.36-25.89,25.89v36.03c0,16.53,10.92,24.64,26.36,24.64c8.73,0,16.07-1.87,22.46-4.99
		l-3.43-13.26c-3.9,1.4-9.83,3.28-15.44,3.28c-7.49,0-11.7-4.06-11.7-11.85v-9.98h31.51v-25.58
		C3211.34-6164.93,3202.61-6174.6,3187.48-6174.6z M3194.96-6137.94h-15.13v-13.26c0-4.52,2.34-8.73,7.64-8.73
		c5.46,0,7.49,4.05,7.49,8.58V-6137.94z"/>
	<path d="M3250.18-6200.96v33.53h-0.16c-3.59-4.99-8.89-7.17-14.35-7.17c-12.17,0-19.34,8.73-19.34,19.5v47.1
		c0,10.76,5.3,19.65,18.41,19.65c5.46,0,12.17-2.96,15.91-9.51h0.47l0.31,8.11h17v-111.21H3250.18z M3250.34-6114.39
		c0,6.4-3.9,11.23-8.73,11.23c-4.52,0-7.02-3.43-7.02-8.42v-40.08c0-5.93,2.96-8.58,7.17-8.58c4.37,0,8.58,4.21,8.58,10.29V-6114.39
		z"/>
	<g>
		<path d="M1683.28-2430.23c-17.4-16.24-40.72-26.21-66.35-26.21l0,0c-53.67,0-97.33,43.66-97.33,97.33c0,0,0,0,0,0
			c0,25.62,9.97,48.95,26.21,66.35c17.78,19.05,43.08,30.99,71.13,30.99c53.67,0,97.33-43.66,97.33-97.33
			C1714.27-2387.15,1702.33-2412.45,1683.28-2430.23z M1576.2-2403.82c2.49-8.31,8.73-14.98,16.75-18.31
			c9.81-4.07,20.96-6.32,32.96-4.67c42.35,5.83,53.5,39.23,53.5,39.23c-10.29-9.95-31.94-19.5-60.93-8.93
			c-28.99,10.56-33.2,38.28-33.2,38.28C1571.73-2375.82,1572.89-2392.76,1576.2-2403.82z M1629.63-2358.98
			c0,7.04-5.72,12.76-12.76,12.76c-7.04,0-12.76-5.72-12.76-12.76s5.72-12.76,12.76-12.76
			C1623.91-2371.74,1629.63-2366.02,1629.63-2358.98z M1574.28-2305.11c-8.35-6.57-15.77-15.19-20.19-26.46
			c-15.62-39.79,8.06-65.85,8.06-65.85c-3.65,13.84-1.39,37.4,22,57.52c23.39,20.12,49.63,10.24,49.63,10.24
			c-8.73,20.41-24.07,27.69-35.34,30.21C1589.97-2297.56,1581.09-2299.75,1574.28-2305.11z M1684.95-2350.65
			c-1.12,10.57-4.49,21.43-11.68,31.17c-25.4,34.38-60.06,28.18-60.06,28.18c13.66-4.27,32.42-18.7,37.03-49.21
			c4.61-30.51-17.71-47.48-17.71-47.48c21.93-3.46,36.25,5.67,44.37,13.87C1683-2367.95,1685.86-2359.27,1684.95-2350.65z"/>
		<path d="M1790.84-2421.13h-35.31v125.25h22.13v-46.9h12.3c21.61,0,31.09-15.46,31.09-40.58
			C1821.05-2407.25,1811.39-2421.13,1790.84-2421.13z M1786.79-2361.05h-9.13v-41.63h9.49c8.78,0,12.3,7.03,12.3,19.85
			C1799.44-2368.26,1795.23-2361.05,1786.79-2361.05z"/>
		<path d="M1865.49-2323.99c0,6.68-3.86,12.65-9.48,12.65c-5.97,0-8.08-4.04-8.08-9.14v-68.86h-20.38v76.41
			c0,11.77,8.08,18.97,18.45,18.97c8.26,0,15.28-4.04,19.67-11.24h0.18v9.31h20.03v-93.45h-20.38V-2323.99z"/>
		<path d="M1973-2391.44c-8.26,0-15.28,3.69-20.55,11.24h-0.18c-2.64-7.38-9.31-11.24-17.39-11.24c-8.08,0-15.11,3.69-19.5,10.89
			h-0.18v-8.78h-20.2v93.45h20.73v-65.52c0-6.67,3.69-12.65,9.31-12.65c5.8,0,7.91,4.22,7.91,9.31v68.86h20.73v-66.05
			c0-6.68,3.86-12.12,9.31-12.12c5.97,0,8.08,4.22,8.08,9.49v68.68h20.55v-76.76C1991.62-2384.24,1983.36-2391.44,1973-2391.44z"/>
		<path d="M2038.7-2391.27c-6.32,0-14.23,3.86-18.09,10.72h-0.35v-8.78h-20.2v121.73h20.73v-34.61h0.17
			c3.69,5.45,10.01,8.08,15.81,8.08c14.05,0,21.96-9.84,21.96-22.13v-52.7C2058.73-2381.25,2052.93-2391.27,2038.7-2391.27z
			 M2038.17-2319.77c0,6.15-3.34,9.14-8.08,9.14c-5.09,0-9.31-4.04-9.31-10.89v-40.93c0-7.91,4.04-12.12,9.31-12.12
			c5.27,0,8.08,3.51,8.08,8.96V-2319.77z"/>
		<path d="M2094.21-2391.44c-16.34,0-29.16,10.54-29.16,29.16v40.58c0,18.62,12.3,27.76,29.69,27.76c9.84,0,18.09-2.11,25.29-5.62
			l-3.86-14.93c-4.39,1.58-11.07,3.69-17.39,3.69c-8.43,0-13.17-4.57-13.17-13.35v-11.24h35.48v-28.81
			C2121.09-2380.55,2111.25-2391.44,2094.21-2391.44z M2102.64-2350.16h-17.04v-14.93c0-5.09,2.63-9.84,8.61-9.84
			c6.15,0,8.43,4.57,8.43,9.66V-2350.16z"/>
		<path d="M2164.83-2421.13v37.77h-0.18c-4.04-5.62-10.01-8.08-16.16-8.08c-13.7,0-21.78,9.84-21.78,21.96v53.05
			c0,12.12,5.97,22.13,20.73,22.13c6.15,0,13.7-3.34,17.92-10.71h0.53l0.35,9.13h19.15v-125.25H2164.83z M2165.01-2323.64
			c0,7.2-4.39,12.65-9.84,12.65c-5.09,0-7.91-3.86-7.91-9.49v-45.14c0-6.68,3.34-9.66,8.08-9.66c4.92,0,9.66,4.74,9.66,11.59
			V-2323.64z"/>
	</g>
	<g>
		<path class="st4" d="M426.06-2430.23c-17.4-16.24-40.72-26.21-66.35-26.21l0,0c-53.67,0-97.33,43.66-97.33,97.33c0,0,0,0,0,0
			c0,25.62,9.97,48.95,26.21,66.35c17.78,19.05,43.08,30.99,71.13,30.99c53.67,0,97.33-43.66,97.33-97.33
			C457.05-2387.15,445.11-2412.45,426.06-2430.23z M318.98-2403.82c2.49-8.31,8.73-14.98,16.75-18.31
			c9.81-4.07,20.96-6.32,32.96-4.67c42.35,5.83,53.5,39.23,53.5,39.23c-10.29-9.95-31.94-19.5-60.93-8.93
			c-28.99,10.56-33.2,38.28-33.2,38.28C314.51-2375.82,315.67-2392.76,318.98-2403.82z M372.41-2358.98
			c0,7.04-5.72,12.76-12.76,12.76c-7.04,0-12.76-5.72-12.76-12.76s5.72-12.76,12.76-12.76
			C366.69-2371.74,372.41-2366.02,372.41-2358.98z M317.06-2305.11c-8.35-6.57-15.77-15.19-20.19-26.46
			c-15.62-39.79,8.06-65.85,8.06-65.85c-3.65,13.84-1.39,37.4,22,57.52c23.39,20.12,49.63,10.24,49.63,10.24
			c-8.73,20.41-24.07,27.69-35.34,30.21C332.75-2297.56,323.88-2299.75,317.06-2305.11z M427.73-2350.65
			c-1.12,10.57-4.49,21.43-11.68,31.17c-25.4,34.38-60.06,28.18-60.06,28.18c13.66-4.27,32.42-18.7,37.02-49.21
			c4.61-30.51-17.71-47.48-17.71-47.48c21.93-3.46,36.25,5.67,44.37,13.87C425.78-2367.95,428.65-2359.27,427.73-2350.65z"/>
		<path class="st4" d="M533.62-2421.13h-35.31v125.25h22.13v-46.9h12.3c21.61,0,31.09-15.46,31.09-40.58
			C563.83-2407.25,554.17-2421.13,533.62-2421.13z M529.58-2361.05h-9.13v-41.63h9.49c8.78,0,12.3,7.03,12.3,19.85
			C542.23-2368.26,538.01-2361.05,529.58-2361.05z"/>
		<path class="st4" d="M608.28-2323.99c0,6.68-3.86,12.65-9.48,12.65c-5.97,0-8.08-4.04-8.08-9.14v-68.86h-20.38v76.41
			c0,11.77,8.08,18.97,18.45,18.97c8.26,0,15.28-4.04,19.67-11.24h0.18v9.31h20.03v-93.45h-20.38V-2323.99z"/>
		<path class="st4" d="M715.78-2391.44c-8.26,0-15.28,3.69-20.55,11.24h-0.18c-2.64-7.38-9.31-11.24-17.39-11.24
			c-8.08,0-15.11,3.69-19.5,10.89h-0.18v-8.78h-20.2v93.45h20.73v-65.52c0-6.67,3.69-12.65,9.31-12.65c5.8,0,7.91,4.22,7.91,9.31
			v68.86h20.73v-66.05c0-6.68,3.86-12.12,9.31-12.12c5.97,0,8.08,4.22,8.08,9.49v68.68h20.55v-76.76
			C734.4-2384.24,726.15-2391.44,715.78-2391.44z"/>
		<path class="st4" d="M781.48-2391.27c-6.32,0-14.23,3.86-18.09,10.72h-0.35v-8.78h-20.2v121.73h20.73v-34.61h0.17
			c3.69,5.45,10.01,8.08,15.81,8.08c14.05,0,21.96-9.84,21.96-22.13v-52.7C801.51-2381.25,795.71-2391.27,781.48-2391.27z
			 M780.96-2319.77c0,6.15-3.34,9.14-8.08,9.14c-5.09,0-9.31-4.04-9.31-10.89v-40.93c0-7.91,4.04-12.12,9.31-12.12
			c5.27,0,8.08,3.51,8.08,8.96V-2319.77z"/>
		<path class="st4" d="M837-2391.44c-16.34,0-29.16,10.54-29.16,29.16v40.58c0,18.62,12.3,27.76,29.69,27.76
			c9.84,0,18.09-2.11,25.29-5.62l-3.86-14.93c-4.39,1.58-11.07,3.69-17.39,3.69c-8.43,0-13.17-4.57-13.17-13.35v-11.24h35.48v-28.81
			C863.87-2380.55,854.03-2391.44,837-2391.44z M845.43-2350.16h-17.04v-14.93c0-5.09,2.63-9.84,8.61-9.84
			c6.15,0,8.43,4.57,8.43,9.66V-2350.16z"/>
		<path class="st4" d="M907.61-2421.13v37.77h-0.18c-4.04-5.62-10.01-8.08-16.16-8.08c-13.7,0-21.78,9.84-21.78,21.96v53.05
			c0,12.12,5.97,22.13,20.73,22.13c6.15,0,13.7-3.34,17.92-10.71h0.53l0.35,9.13h19.15v-125.25H907.61z M907.79-2323.64
			c0,7.2-4.39,12.65-9.84,12.65c-5.09,0-7.91-3.86-7.91-9.49v-45.14c0-6.68,3.34-9.66,8.08-9.66c4.92,0,9.66,4.74,9.66,11.59
			V-2323.64z"/>
	</g>
	<g>
		<path class="st4" d="M426.06-1510.91c-17.4-16.24-40.72-26.21-66.35-26.21l0,0c-53.67,0-97.33,43.66-97.33,97.33c0,0,0,0,0,0
			c0,25.62,9.97,48.95,26.21,66.35c17.78,19.05,43.08,30.99,71.13,30.99c53.67,0,97.33-43.66,97.33-97.33
			C457.05-1467.83,445.11-1493.13,426.06-1510.91z M318.98-1484.49c2.49-8.31,8.73-14.98,16.75-18.31
			c9.81-4.07,20.96-6.32,32.96-4.67c42.35,5.83,53.5,39.23,53.5,39.23c-10.29-9.95-31.94-19.5-60.93-8.93
			c-28.99,10.56-33.2,38.28-33.2,38.28C314.51-1456.5,315.67-1473.44,318.98-1484.49z M372.41-1439.66
			c0,7.04-5.72,12.76-12.76,12.76c-7.04,0-12.76-5.72-12.76-12.76s5.72-12.76,12.76-12.76
			C366.69-1452.42,372.41-1446.69,372.41-1439.66z M317.06-1385.79c-8.35-6.57-15.77-15.19-20.19-26.46
			c-15.62-39.79,8.06-65.85,8.06-65.85c-3.65,13.84-1.39,37.4,22,57.52c23.39,20.12,49.63,10.24,49.63,10.24
			c-8.73,20.41-24.07,27.69-35.34,30.21C332.75-1378.24,323.88-1380.43,317.06-1385.79z M427.73-1431.32
			c-1.12,10.57-4.49,21.43-11.68,31.17c-25.4,34.38-60.06,28.18-60.06,28.18c13.66-4.27,32.42-18.7,37.02-49.21
			c4.61-30.51-17.71-47.48-17.71-47.48c21.93-3.46,36.25,5.67,44.37,13.87C425.78-1448.63,428.65-1439.95,427.73-1431.32z"/>
		<path class="st4" d="M533.62-1501.81h-35.31v125.25h22.13v-46.9h12.3c21.61,0,31.09-15.46,31.09-40.58
			C563.83-1487.93,554.17-1501.81,533.62-1501.81z M529.58-1441.73h-9.13v-41.63h9.49c8.78,0,12.3,7.03,12.3,19.85
			C542.23-1448.93,538.01-1441.73,529.58-1441.73z"/>
		<path class="st4" d="M608.28-1404.66c0,6.67-3.86,12.65-9.48,12.65c-5.97,0-8.08-4.04-8.08-9.14v-68.86h-20.38v76.41
			c0,11.77,8.08,18.97,18.45,18.97c8.26,0,15.28-4.04,19.67-11.24h0.18v9.31h20.03v-93.45h-20.38V-1404.66z"/>
		<path class="st4" d="M715.78-1472.12c-8.26,0-15.28,3.69-20.55,11.24h-0.18c-2.64-7.38-9.31-11.24-17.39-11.24
			c-8.08,0-15.11,3.69-19.5,10.89h-0.18v-8.78h-20.2v93.45h20.73v-65.52c0-6.67,3.69-12.65,9.31-12.65c5.8,0,7.91,4.22,7.91,9.31
			v68.86h20.73v-66.05c0-6.68,3.86-12.12,9.31-12.12c5.97,0,8.08,4.22,8.08,9.49v68.68h20.55v-76.76
			C734.4-1464.92,726.15-1472.12,715.78-1472.12z"/>
		<path class="st4" d="M781.48-1471.94c-6.32,0-14.23,3.86-18.09,10.72h-0.35v-8.78h-20.2v121.73h20.73v-34.61h0.17
			c3.69,5.45,10.01,8.08,15.81,8.08c14.05,0,21.96-9.84,21.96-22.13v-52.7C801.51-1461.93,795.71-1471.94,781.48-1471.94z
			 M780.96-1400.45c0,6.15-3.34,9.14-8.08,9.14c-5.09,0-9.31-4.04-9.31-10.89v-40.93c0-7.91,4.04-12.12,9.31-12.12
			c5.27,0,8.08,3.51,8.08,8.96V-1400.45z"/>
		<path class="st4" d="M837-1472.12c-16.34,0-29.16,10.54-29.16,29.16v40.58c0,18.62,12.3,27.76,29.69,27.76
			c9.84,0,18.09-2.11,25.29-5.62l-3.86-14.93c-4.39,1.58-11.07,3.69-17.39,3.69c-8.43,0-13.17-4.57-13.17-13.35v-11.24h35.48v-28.81
			C863.87-1461.23,854.03-1472.12,837-1472.12z M845.43-1430.84h-17.04v-14.93c0-5.09,2.63-9.84,8.61-9.84
			c6.15,0,8.43,4.57,8.43,9.66V-1430.84z"/>
		<path class="st4" d="M907.61-1501.81v37.77h-0.18c-4.04-5.62-10.01-8.08-16.16-8.08c-13.7,0-21.78,9.84-21.78,21.96v53.05
			c0,12.12,5.97,22.13,20.73,22.13c6.15,0,13.7-3.34,17.92-10.71h0.53l0.35,9.13h19.15v-125.25H907.61z M907.79-1404.31
			c0,7.2-4.39,12.65-9.84,12.65c-5.09,0-7.91-3.86-7.91-9.49v-45.14c0-6.68,3.34-9.66,8.08-9.66c4.92,0,9.66,4.74,9.66,11.59
			V-1404.31z"/>
	</g>
	<g>
		<path class="st4" d="M1683.28-1510.91c-17.4-16.24-40.72-26.21-66.35-26.21l0,0c-53.67,0-97.33,43.66-97.33,97.33c0,0,0,0,0,0
			c0,25.62,9.97,48.95,26.21,66.35c17.78,19.05,43.08,30.99,71.13,30.99c53.67,0,97.33-43.66,97.33-97.33
			C1714.27-1467.83,1702.33-1493.13,1683.28-1510.91z M1576.2-1484.49c2.49-8.31,8.73-14.98,16.75-18.31
			c9.81-4.07,20.96-6.32,32.96-4.67c42.35,5.83,53.5,39.23,53.5,39.23c-10.29-9.95-31.94-19.5-60.93-8.93
			c-28.99,10.56-33.2,38.28-33.2,38.28C1571.73-1456.5,1572.89-1473.44,1576.2-1484.49z M1629.63-1439.66
			c0,7.04-5.72,12.76-12.76,12.76c-7.04,0-12.76-5.72-12.76-12.76s5.72-12.76,12.76-12.76
			C1623.91-1452.42,1629.63-1446.69,1629.63-1439.66z M1574.28-1385.79c-8.35-6.57-15.77-15.19-20.19-26.46
			c-15.62-39.79,8.06-65.85,8.06-65.85c-3.65,13.84-1.39,37.4,22,57.52c23.39,20.12,49.63,10.24,49.63,10.24
			c-8.73,20.41-24.07,27.69-35.34,30.21C1589.97-1378.24,1581.09-1380.43,1574.28-1385.79z M1684.95-1431.32
			c-1.12,10.57-4.49,21.43-11.68,31.17c-25.4,34.38-60.06,28.18-60.06,28.18c13.66-4.27,32.42-18.7,37.03-49.21
			c4.61-30.51-17.71-47.48-17.71-47.48c21.93-3.46,36.25,5.67,44.37,13.87C1683-1448.63,1685.86-1439.95,1684.95-1431.32z"/>
		<path class="st4" d="M1790.84-1501.81h-35.31v125.25h22.13v-46.9h12.3c21.61,0,31.09-15.46,31.09-40.58
			C1821.05-1487.93,1811.39-1501.81,1790.84-1501.81z M1786.79-1441.73h-9.13v-41.63h9.49c8.78,0,12.3,7.03,12.3,19.85
			C1799.44-1448.93,1795.23-1441.73,1786.79-1441.73z"/>
		<path class="st4" d="M1865.49-1404.66c0,6.67-3.86,12.65-9.48,12.65c-5.97,0-8.08-4.04-8.08-9.14v-68.86h-20.38v76.41
			c0,11.77,8.08,18.97,18.45,18.97c8.26,0,15.28-4.04,19.67-11.24h0.18v9.31h20.03v-93.45h-20.38V-1404.66z"/>
		<path class="st4" d="M1973-1472.12c-8.26,0-15.28,3.69-20.55,11.24h-0.18c-2.64-7.38-9.31-11.24-17.39-11.24
			c-8.08,0-15.11,3.69-19.5,10.89h-0.18v-8.78h-20.2v93.45h20.73v-65.52c0-6.67,3.69-12.65,9.31-12.65c5.8,0,7.91,4.22,7.91,9.31
			v68.86h20.73v-66.05c0-6.68,3.86-12.12,9.31-12.12c5.97,0,8.08,4.22,8.08,9.49v68.68h20.55v-76.76
			C1991.62-1464.92,1983.36-1472.12,1973-1472.12z"/>
		<path class="st4" d="M2038.7-1471.94c-6.32,0-14.23,3.86-18.09,10.72h-0.35v-8.78h-20.2v121.73h20.73v-34.61h0.17
			c3.69,5.45,10.01,8.08,15.81,8.08c14.05,0,21.96-9.84,21.96-22.13v-52.7C2058.73-1461.93,2052.93-1471.94,2038.7-1471.94z
			 M2038.17-1400.45c0,6.15-3.34,9.14-8.08,9.14c-5.09,0-9.31-4.04-9.31-10.89v-40.93c0-7.91,4.04-12.12,9.31-12.12
			c5.27,0,8.08,3.51,8.08,8.96V-1400.45z"/>
		<path class="st4" d="M2094.21-1472.12c-16.34,0-29.16,10.54-29.16,29.16v40.58c0,18.62,12.3,27.76,29.69,27.76
			c9.84,0,18.09-2.11,25.29-5.62l-3.86-14.93c-4.39,1.58-11.07,3.69-17.39,3.69c-8.43,0-13.17-4.57-13.17-13.35v-11.24h35.48v-28.81
			C2121.09-1461.23,2111.25-1472.12,2094.21-1472.12z M2102.64-1430.84h-17.04v-14.93c0-5.09,2.63-9.84,8.61-9.84
			c6.15,0,8.43,4.57,8.43,9.66V-1430.84z"/>
		<path class="st4" d="M2164.83-1501.81v37.77h-0.18c-4.04-5.62-10.01-8.08-16.16-8.08c-13.7,0-21.78,9.84-21.78,21.96v53.05
			c0,12.12,5.97,22.13,20.73,22.13c6.15,0,13.7-3.34,17.92-10.71h0.53l0.35,9.13h19.15v-125.25H2164.83z M2165.01-1404.31
			c0,7.2-4.39,12.65-9.84,12.65c-5.09,0-7.91-3.86-7.91-9.49v-45.14c0-6.68,3.34-9.66,8.08-9.66c4.92,0,9.66,4.74,9.66,11.59
			V-1404.31z"/>
	</g>
	<g>
		<path class="st4" d="M1683.28-570.18c-17.4-16.24-40.72-26.21-66.35-26.21l0,0c-53.67,0-97.33,43.66-97.33,97.33c0,0,0,0,0,0
			c0,25.62,9.97,48.95,26.21,66.35c17.78,19.05,43.08,30.99,71.13,30.99c53.67,0,97.33-43.66,97.33-97.33
			C1714.27-527.1,1702.33-552.4,1683.28-570.18z M1576.2-543.77c2.49-8.31,8.73-14.98,16.75-18.31c9.81-4.07,20.96-6.32,32.96-4.67
			c42.35,5.83,53.5,39.23,53.5,39.23c-10.29-9.95-31.94-19.5-60.93-8.93c-28.99,10.56-33.2,38.28-33.2,38.28
			C1571.73-515.77,1572.89-532.71,1576.2-543.77z M1629.63-498.93c0,7.04-5.72,12.76-12.76,12.76c-7.04,0-12.76-5.72-12.76-12.76
			c0-7.04,5.72-12.76,12.76-12.76C1623.91-511.69,1629.63-505.97,1629.63-498.93z M1574.28-445.06
			c-8.35-6.57-15.77-15.19-20.19-26.46c-15.62-39.79,8.06-65.85,8.06-65.85c-3.65,13.84-1.39,37.4,22,57.52
			c23.39,20.12,49.63,10.24,49.63,10.24c-8.73,20.41-24.07,27.69-35.34,30.21C1589.97-437.51,1581.09-439.7,1574.28-445.06z
			 M1684.95-490.6c-1.12,10.57-4.49,21.43-11.68,31.17c-25.4,34.38-60.06,28.18-60.06,28.18c13.66-4.27,32.42-18.7,37.03-49.21
			c4.61-30.51-17.71-47.48-17.71-47.48c21.93-3.46,36.25,5.67,44.37,13.87C1683-507.9,1685.86-499.22,1684.95-490.6z"/>
		<path class="st4" d="M1790.84-561.08h-35.31v125.25h22.13v-46.9h12.3c21.61,0,31.09-15.46,31.09-40.58
			C1821.05-547.2,1811.39-561.08,1790.84-561.08z M1786.79-501h-9.13v-41.63h9.49c8.78,0,12.3,7.03,12.3,19.85
			C1799.44-508.21,1795.23-501,1786.79-501z"/>
		<path class="st4" d="M1865.49-463.94c0,6.67-3.86,12.65-9.48,12.65c-5.97,0-8.08-4.04-8.08-9.14v-68.86h-20.38v76.41
			c0,11.77,8.08,18.97,18.45,18.97c8.26,0,15.28-4.04,19.67-11.24h0.18v9.31h20.03v-93.45h-20.38V-463.94z"/>
		<path class="st4" d="M1973-531.39c-8.26,0-15.28,3.69-20.55,11.24h-0.18c-2.64-7.38-9.31-11.24-17.39-11.24
			c-8.08,0-15.11,3.69-19.5,10.89h-0.18v-8.78h-20.2v93.45h20.73v-65.52c0-6.67,3.69-12.65,9.31-12.65c5.8,0,7.91,4.22,7.91,9.31
			v68.86h20.73v-66.05c0-6.68,3.86-12.12,9.31-12.12c5.97,0,8.08,4.22,8.08,9.49v68.68h20.55v-76.76
			C1991.62-524.19,1983.36-531.39,1973-531.39z"/>
		<path class="st4" d="M2038.7-531.22c-6.32,0-14.23,3.86-18.09,10.72h-0.35v-8.78h-20.2v121.73h20.73v-34.61h0.17
			c3.69,5.45,10.01,8.08,15.81,8.08c14.05,0,21.96-9.84,21.96-22.13v-52.7C2058.73-521.2,2052.93-531.22,2038.7-531.22z
			 M2038.17-459.72c0,6.15-3.34,9.14-8.08,9.14c-5.09,0-9.31-4.04-9.31-10.89v-40.93c0-7.91,4.04-12.12,9.31-12.12
			c5.27,0,8.08,3.51,8.08,8.96V-459.72z"/>
		<path class="st4" d="M2094.21-531.39c-16.34,0-29.16,10.54-29.16,29.16v40.58c0,18.62,12.3,27.76,29.69,27.76
			c9.84,0,18.09-2.11,25.29-5.62l-3.86-14.93c-4.39,1.58-11.07,3.69-17.39,3.69c-8.43,0-13.17-4.57-13.17-13.35v-11.24h35.48v-28.81
			C2121.09-520.5,2111.25-531.39,2094.21-531.39z M2102.64-490.11h-17.04v-14.93c0-5.09,2.63-9.84,8.61-9.84
			c6.15,0,8.43,4.57,8.43,9.66V-490.11z"/>
		<path class="st4" d="M2164.83-561.08v37.77h-0.18c-4.04-5.62-10.01-8.08-16.16-8.08c-13.7,0-21.78,9.84-21.78,21.96v53.05
			c0,12.12,5.97,22.13,20.73,22.13c6.15,0,13.7-3.34,17.92-10.71h0.53l0.35,9.13h19.15v-125.25H2164.83z M2165.01-463.59
			c0,7.2-4.39,12.65-9.84,12.65c-5.09,0-7.91-3.86-7.91-9.49v-45.14c0-6.68,3.34-9.66,8.08-9.66c4.92,0,9.66,4.74,9.66,11.59
			V-463.59z"/>
	</g>
	<g>
		<path class="st4" d="M426.06-570.18c-17.4-16.24-40.72-26.21-66.35-26.21l0,0c-53.67,0-97.33,43.66-97.33,97.33c0,0,0,0,0,0
			c0,25.62,9.97,48.95,26.21,66.35c17.78,19.05,43.08,30.99,71.13,30.99c53.67,0,97.33-43.66,97.33-97.33
			C457.05-527.1,445.11-552.4,426.06-570.18z M318.98-543.77c2.49-8.31,8.73-14.98,16.75-18.31c9.81-4.07,20.96-6.32,32.96-4.67
			c42.35,5.83,53.5,39.23,53.5,39.23c-10.29-9.95-31.94-19.5-60.93-8.93c-28.99,10.56-33.2,38.28-33.2,38.28
			C314.51-515.77,315.67-532.71,318.98-543.77z M372.41-498.93c0,7.04-5.72,12.76-12.76,12.76c-7.04,0-12.76-5.72-12.76-12.76
			c0-7.04,5.72-12.76,12.76-12.76C366.69-511.69,372.41-505.97,372.41-498.93z M317.06-445.06c-8.35-6.57-15.77-15.19-20.19-26.46
			c-15.62-39.79,8.06-65.85,8.06-65.85c-3.65,13.84-1.39,37.4,22,57.52c23.39,20.12,49.63,10.24,49.63,10.24
			c-8.73,20.41-24.07,27.69-35.34,30.21C332.75-437.51,323.88-439.7,317.06-445.06z M427.73-490.6
			c-1.12,10.57-4.49,21.43-11.68,31.17c-25.4,34.38-60.06,28.18-60.06,28.18c13.66-4.27,32.42-18.7,37.02-49.21
			c4.61-30.51-17.71-47.48-17.71-47.48c21.93-3.46,36.25,5.67,44.37,13.87C425.78-507.9,428.65-499.22,427.73-490.6z"/>
		<path class="st4" d="M533.62-561.08h-35.31v125.25h22.13v-46.9h12.3c21.61,0,31.09-15.46,31.09-40.58
			C563.83-547.2,554.17-561.08,533.62-561.08z M529.58-501h-9.13v-41.63h9.49c8.78,0,12.3,7.03,12.3,19.85
			C542.23-508.21,538.01-501,529.58-501z"/>
		<path class="st4" d="M608.28-463.94c0,6.67-3.86,12.65-9.48,12.65c-5.97,0-8.08-4.04-8.08-9.14v-68.86h-20.38v76.41
			c0,11.77,8.08,18.97,18.45,18.97c8.26,0,15.28-4.04,19.67-11.24h0.18v9.31h20.03v-93.45h-20.38V-463.94z"/>
		<path class="st4" d="M715.78-531.39c-8.26,0-15.28,3.69-20.55,11.24h-0.18c-2.64-7.38-9.31-11.24-17.39-11.24
			c-8.08,0-15.11,3.69-19.5,10.89h-0.18v-8.78h-20.2v93.45h20.73v-65.52c0-6.67,3.69-12.65,9.31-12.65c5.8,0,7.91,4.22,7.91,9.31
			v68.86h20.73v-66.05c0-6.68,3.86-12.12,9.31-12.12c5.97,0,8.08,4.22,8.08,9.49v68.68h20.55v-76.76
			C734.4-524.19,726.15-531.39,715.78-531.39z"/>
		<path class="st4" d="M781.48-531.22c-6.32,0-14.23,3.86-18.09,10.72h-0.35v-8.78h-20.2v121.73h20.73v-34.61h0.17
			c3.69,5.45,10.01,8.08,15.81,8.08c14.05,0,21.96-9.84,21.96-22.13v-52.7C801.51-521.2,795.71-531.22,781.48-531.22z
			 M780.96-459.72c0,6.15-3.34,9.14-8.08,9.14c-5.09,0-9.31-4.04-9.31-10.89v-40.93c0-7.91,4.04-12.12,9.31-12.12
			c5.27,0,8.08,3.51,8.08,8.96V-459.72z"/>
		<path class="st4" d="M837-531.39c-16.34,0-29.16,10.54-29.16,29.16v40.58c0,18.62,12.3,27.76,29.69,27.76
			c9.84,0,18.09-2.11,25.29-5.62l-3.86-14.93c-4.39,1.58-11.07,3.69-17.39,3.69c-8.43,0-13.17-4.57-13.17-13.35v-11.24h35.48v-28.81
			C863.87-520.5,854.03-531.39,837-531.39z M845.43-490.11h-17.04v-14.93c0-5.09,2.63-9.84,8.61-9.84c6.15,0,8.43,4.57,8.43,9.66
			V-490.11z"/>
		<path class="st4" d="M907.61-561.08v37.77h-0.18c-4.04-5.62-10.01-8.08-16.16-8.08c-13.7,0-21.78,9.84-21.78,21.96v53.05
			c0,12.12,5.97,22.13,20.73,22.13c6.15,0,13.7-3.34,17.92-10.71h0.53l0.35,9.13h19.15v-125.25H907.61z M907.79-463.59
			c0,7.2-4.39,12.65-9.84,12.65c-5.09,0-7.91-3.86-7.91-9.49v-45.14c0-6.68,3.34-9.66,8.08-9.66c4.92,0,9.66,4.74,9.66,11.59
			V-463.59z"/>
	</g>
	<g>
		<path class="st4" d="M426.06,349.82c-17.4-16.24-40.72-26.21-66.35-26.21l0,0c-53.67,0-97.33,43.66-97.33,97.33c0,0,0,0,0,0
			c0,25.62,9.97,48.95,26.21,66.35c17.78,19.05,43.08,30.99,71.13,30.99c53.67,0,97.33-43.66,97.33-97.33
			C457.05,392.9,445.11,367.6,426.06,349.82z M318.98,376.23c2.49-8.31,8.73-14.98,16.75-18.31c9.81-4.07,20.96-6.32,32.96-4.67
			c42.35,5.83,53.5,39.23,53.5,39.23c-10.29-9.95-31.94-19.5-60.93-8.93c-28.99,10.56-33.2,38.28-33.2,38.28
			C314.51,404.23,315.67,387.29,318.98,376.23z M372.41,421.07c0,7.04-5.72,12.76-12.76,12.76c-7.04,0-12.76-5.72-12.76-12.76
			c0-7.04,5.72-12.76,12.76-12.76C366.69,408.31,372.41,414.03,372.41,421.07z M317.06,474.94c-8.35-6.57-15.77-15.19-20.19-26.46
			c-15.62-39.79,8.06-65.85,8.06-65.85c-3.65,13.84-1.39,37.4,22,57.52c23.39,20.12,49.63,10.24,49.63,10.24
			c-8.73,20.41-24.07,27.69-35.34,30.21C332.75,482.49,323.88,480.3,317.06,474.94z M427.73,429.4
			c-1.12,10.57-4.49,21.43-11.68,31.17c-25.4,34.38-60.06,28.18-60.06,28.18c13.66-4.27,32.42-18.7,37.02-49.21
			c4.61-30.51-17.71-47.48-17.71-47.48c21.93-3.46,36.25,5.67,44.37,13.87C425.78,412.1,428.65,420.78,427.73,429.4z"/>
		<path class="st4" d="M533.62,358.92h-35.31v125.25h22.13v-46.9h12.3c21.61,0,31.09-15.46,31.09-40.58
			C563.83,372.8,554.17,358.92,533.62,358.92z M529.58,419h-9.13v-41.63h9.49c8.78,0,12.3,7.03,12.3,19.85
			C542.23,411.79,538.01,419,529.58,419z"/>
		<path class="st4" d="M608.28,456.06c0,6.67-3.86,12.65-9.48,12.65c-5.97,0-8.08-4.04-8.08-9.14v-68.86h-20.38v76.41
			c0,11.77,8.08,18.97,18.45,18.97c8.26,0,15.28-4.04,19.67-11.24h0.18v9.31h20.03v-93.45h-20.38V456.06z"/>
		<path class="st4" d="M715.78,388.61c-8.26,0-15.28,3.69-20.55,11.24h-0.18c-2.64-7.38-9.31-11.24-17.39-11.24
			c-8.08,0-15.11,3.69-19.5,10.89h-0.18v-8.78h-20.2v93.45h20.73v-65.52c0-6.67,3.69-12.65,9.31-12.65c5.8,0,7.91,4.22,7.91,9.31
			v68.86h20.73v-66.05c0-6.68,3.86-12.12,9.31-12.12c5.97,0,8.08,4.22,8.08,9.49v68.68h20.55V407.4
			C734.4,395.81,726.15,388.61,715.78,388.61z"/>
		<path class="st4" d="M781.48,388.78c-6.32,0-14.23,3.86-18.09,10.72h-0.35v-8.78h-20.2v121.73h20.73v-34.61h0.17
			c3.69,5.45,10.01,8.08,15.81,8.08c14.05,0,21.96-9.84,21.96-22.13v-52.7C801.51,398.8,795.71,388.78,781.48,388.78z
			 M780.96,460.28c0,6.15-3.34,9.14-8.08,9.14c-5.09,0-9.31-4.04-9.31-10.89v-40.93c0-7.91,4.04-12.12,9.31-12.12
			c5.27,0,8.08,3.51,8.08,8.96V460.28z"/>
		<path class="st4" d="M837,388.61c-16.34,0-29.16,10.54-29.16,29.16v40.58c0,18.62,12.3,27.76,29.69,27.76
			c9.84,0,18.09-2.11,25.29-5.62l-3.86-14.93c-4.39,1.58-11.07,3.69-17.39,3.69c-8.43,0-13.17-4.57-13.17-13.35v-11.24h35.48v-28.81
			C863.87,399.5,854.03,388.61,837,388.61z M845.43,429.89h-17.04v-14.93c0-5.09,2.63-9.84,8.61-9.84c6.15,0,8.43,4.57,8.43,9.66
			V429.89z"/>
		<path class="st4" d="M907.61,358.92v37.77h-0.18c-4.04-5.62-10.01-8.08-16.16-8.08c-13.7,0-21.78,9.84-21.78,21.96v53.05
			c0,12.12,5.97,22.13,20.73,22.13c6.15,0,13.7-3.34,17.92-10.71h0.53l0.35,9.13h19.15V358.92H907.61z M907.79,456.41
			c0,7.2-4.39,12.65-9.84,12.65c-5.09,0-7.91-3.86-7.91-9.49v-45.14c0-6.68,3.34-9.66,8.08-9.66c4.92,0,9.66,4.74,9.66,11.59V456.41
			z"/>
	</g>
	<g>
		<path d="M4329.05-2430.23c-17.4-16.24-40.72-26.21-66.35-26.21l0,0c-53.67,0-97.33,43.66-97.33,97.33c0,0,0,0,0,0
			c0,25.62,9.97,48.95,26.21,66.35c17.78,19.05,43.08,30.99,71.13,30.99c53.67,0,97.33-43.66,97.33-97.33
			C4360.04-2387.15,4348.1-2412.45,4329.05-2430.23z M4221.97-2403.82c2.49-8.31,8.73-14.98,16.75-18.31
			c9.81-4.07,20.96-6.32,32.96-4.67c42.35,5.83,53.5,39.23,53.5,39.23c-10.29-9.95-31.94-19.5-60.93-8.93s-33.2,38.28-33.2,38.28
			C4217.5-2375.82,4218.66-2392.76,4221.97-2403.82z M4275.4-2358.98c0,7.04-5.72,12.76-12.76,12.76c-7.04,0-12.76-5.72-12.76-12.76
			s5.72-12.76,12.76-12.76C4269.68-2371.74,4275.4-2366.02,4275.4-2358.98z M4220.05-2305.11c-8.35-6.57-15.77-15.19-20.19-26.46
			c-15.62-39.79,8.06-65.85,8.06-65.85c-3.65,13.84-1.39,37.4,22,57.52c23.39,20.12,49.63,10.24,49.63,10.24
			c-8.73,20.41-24.07,27.69-35.34,30.21C4235.74-2297.56,4226.87-2299.75,4220.05-2305.11z M4330.72-2350.65
			c-1.12,10.57-4.49,21.43-11.68,31.17c-25.4,34.38-60.06,28.18-60.06,28.18c13.66-4.27,32.42-18.7,37.02-49.21
			c4.61-30.51-17.71-47.48-17.71-47.48c21.93-3.46,36.25,5.67,44.37,13.87C4328.77-2367.95,4331.64-2359.27,4330.72-2350.65z"/>
		<path d="M4436.61-2421.13h-35.31v125.25h22.13v-46.9h12.3c21.61,0,31.09-15.46,31.09-40.58
			C4466.82-2407.25,4457.16-2421.13,4436.61-2421.13z M4432.57-2361.05h-9.13v-41.63h9.49c8.78,0,12.3,7.03,12.3,19.85
			C4445.22-2368.26,4441-2361.05,4432.57-2361.05z"/>
		<path d="M4511.27-2323.99c0,6.68-3.86,12.65-9.48,12.65c-5.97,0-8.08-4.04-8.08-9.14v-68.86h-20.38v76.41
			c0,11.77,8.08,18.97,18.45,18.97c8.26,0,15.28-4.04,19.67-11.24h0.18v9.31h20.03v-93.45h-20.38V-2323.99z"/>
		<path d="M4618.77-2391.44c-8.26,0-15.28,3.69-20.55,11.24h-0.18c-2.64-7.38-9.31-11.24-17.39-11.24c-8.08,0-15.11,3.69-19.5,10.89
			h-0.18v-8.78h-20.2v93.45h20.73v-65.52c0-6.67,3.69-12.65,9.31-12.65c5.8,0,7.91,4.22,7.91,9.31v68.86h20.73v-66.05
			c0-6.68,3.86-12.12,9.31-12.12c5.97,0,8.08,4.22,8.08,9.49v68.68h20.55v-76.76C4637.39-2384.24,4629.14-2391.44,4618.77-2391.44z"
			/>
		<path d="M4684.47-2391.27c-6.32,0-14.23,3.86-18.09,10.72h-0.35v-8.78h-20.2v121.73h20.73v-34.61h0.17
			c3.69,5.45,10.01,8.08,15.81,8.08c14.05,0,21.96-9.84,21.96-22.13v-52.7C4704.5-2381.25,4698.7-2391.27,4684.47-2391.27z
			 M4683.95-2319.77c0,6.15-3.34,9.14-8.08,9.14c-5.09,0-9.31-4.04-9.31-10.89v-40.93c0-7.91,4.04-12.12,9.31-12.12
			s8.08,3.51,8.08,8.96V-2319.77z"/>
		<path d="M4739.99-2391.44c-16.34,0-29.16,10.54-29.16,29.16v40.58c0,18.62,12.3,27.76,29.69,27.76c9.84,0,18.09-2.11,25.29-5.62
			l-3.86-14.93c-4.39,1.58-11.07,3.69-17.39,3.69c-8.43,0-13.17-4.57-13.17-13.35v-11.24h35.48v-28.81
			C4766.86-2380.55,4757.02-2391.44,4739.99-2391.44z M4748.42-2350.16h-17.04v-14.93c0-5.09,2.63-9.84,8.61-9.84
			c6.15,0,8.43,4.57,8.43,9.66V-2350.16z"/>
		<path d="M4810.6-2421.13v37.77h-0.18c-4.04-5.62-10.01-8.08-16.16-8.08c-13.7,0-21.78,9.84-21.78,21.96v53.05
			c0,12.12,5.97,22.13,20.73,22.13c6.15,0,13.7-3.34,17.92-10.71h0.53l0.35,9.13h19.15v-125.25H4810.6z M4810.78-2323.64
			c0,7.2-4.39,12.65-9.84,12.65c-5.09,0-7.91-3.86-7.91-9.49v-45.14c0-6.68,3.34-9.66,8.08-9.66c4.92,0,9.66,4.74,9.66,11.59
			V-2323.64z"/>
	</g>
	<g>
		<path class="st4" d="M3071.84-2430.23c-17.4-16.24-40.72-26.21-66.35-26.21l0,0c-53.67,0-97.33,43.66-97.33,97.33c0,0,0,0,0,0
			c0,25.62,9.97,48.95,26.21,66.35c17.78,19.05,43.08,30.99,71.13,30.99c53.67,0,97.33-43.66,97.33-97.33
			C3102.82-2387.15,3090.88-2412.45,3071.84-2430.23z M2964.75-2403.82c2.49-8.31,8.73-14.98,16.75-18.31
			c9.81-4.07,20.96-6.32,32.96-4.67c42.35,5.83,53.5,39.23,53.5,39.23c-10.29-9.95-31.94-19.5-60.93-8.93s-33.2,38.28-33.2,38.28
			C2960.29-2375.82,2961.44-2392.76,2964.75-2403.82z M3018.19-2358.98c0,7.04-5.72,12.76-12.76,12.76
			c-7.04,0-12.76-5.72-12.76-12.76s5.72-12.76,12.76-12.76C3012.46-2371.74,3018.19-2366.02,3018.19-2358.98z M2962.83-2305.11
			c-8.35-6.57-15.77-15.19-20.19-26.46c-15.62-39.79,8.06-65.85,8.06-65.85c-3.65,13.84-1.39,37.4,22,57.52
			c23.39,20.12,49.63,10.24,49.63,10.24c-8.73,20.41-24.07,27.69-35.34,30.21C2978.53-2297.56,2969.65-2299.75,2962.83-2305.11z
			 M3073.5-2350.65c-1.12,10.57-4.49,21.43-11.68,31.17c-25.4,34.38-60.06,28.18-60.06,28.18c13.66-4.27,32.42-18.7,37.02-49.21
			c4.61-30.51-17.71-47.48-17.71-47.48c21.93-3.46,36.25,5.67,44.37,13.87C3071.55-2367.95,3074.42-2359.27,3073.5-2350.65z"/>
		<path class="st4" d="M3179.39-2421.13h-35.31v125.25h22.13v-46.9h12.3c21.61,0,31.09-15.46,31.09-40.58
			C3209.61-2407.25,3199.94-2421.13,3179.39-2421.13z M3175.35-2361.05h-9.13v-41.63h9.49c8.78,0,12.3,7.03,12.3,19.85
			C3188-2368.26,3183.78-2361.05,3175.35-2361.05z"/>
		<path class="st4" d="M3254.05-2323.99c0,6.68-3.86,12.65-9.48,12.65c-5.97,0-8.08-4.04-8.08-9.14v-68.86h-20.38v76.41
			c0,11.77,8.08,18.97,18.45,18.97c8.26,0,15.28-4.04,19.67-11.24h0.18v9.31h20.03v-93.45h-20.38V-2323.99z"/>
		<path class="st4" d="M3361.56-2391.44c-8.26,0-15.28,3.69-20.55,11.24h-0.18c-2.64-7.38-9.31-11.24-17.39-11.24
			c-8.08,0-15.11,3.69-19.5,10.89h-0.18v-8.78h-20.2v93.45h20.73v-65.52c0-6.67,3.69-12.65,9.31-12.65c5.8,0,7.91,4.22,7.91,9.31
			v68.86h20.73v-66.05c0-6.68,3.86-12.12,9.31-12.12c5.97,0,8.08,4.22,8.08,9.49v68.68h20.55v-76.76
			C3380.18-2384.24,3371.92-2391.44,3361.56-2391.44z"/>
		<path class="st4" d="M3427.26-2391.27c-6.32,0-14.23,3.86-18.09,10.72h-0.35v-8.78h-20.2v121.73h20.73v-34.61h0.17
			c3.69,5.45,10.01,8.08,15.81,8.08c14.05,0,21.96-9.84,21.96-22.13v-52.7C3447.28-2381.25,3441.49-2391.27,3427.26-2391.27z
			 M3426.73-2319.77c0,6.15-3.34,9.14-8.08,9.14c-5.09,0-9.31-4.04-9.31-10.89v-40.93c0-7.91,4.04-12.12,9.31-12.12
			c5.27,0,8.08,3.51,8.08,8.96V-2319.77z"/>
		<path class="st4" d="M3482.77-2391.44c-16.34,0-29.16,10.54-29.16,29.16v40.58c0,18.62,12.3,27.76,29.69,27.76
			c9.84,0,18.09-2.11,25.29-5.62l-3.86-14.93c-4.39,1.58-11.07,3.69-17.39,3.69c-8.43,0-13.17-4.57-13.17-13.35v-11.24h35.48v-28.81
			C3509.64-2380.55,3499.81-2391.44,3482.77-2391.44z M3491.2-2350.16h-17.04v-14.93c0-5.09,2.63-9.84,8.61-9.84
			c6.15,0,8.43,4.57,8.43,9.66V-2350.16z"/>
		<path class="st4" d="M3553.39-2421.13v37.77h-0.18c-4.04-5.62-10.01-8.08-16.16-8.08c-13.7,0-21.78,9.84-21.78,21.96v53.05
			c0,12.12,5.97,22.13,20.73,22.13c6.15,0,13.7-3.34,17.92-10.71h0.53l0.35,9.13h19.15v-125.25H3553.39z M3553.56-2323.64
			c0,7.2-4.39,12.65-9.84,12.65c-5.09,0-7.91-3.86-7.91-9.49v-45.14c0-6.68,3.34-9.66,8.08-9.66c4.92,0,9.66,4.74,9.66,11.59
			V-2323.64z"/>
	</g>
	<g>
		<path class="st3" d="M3071.84-1510.91c-17.4-16.24-40.72-26.21-66.35-26.21l0,0c-53.67,0-97.33,43.66-97.33,97.33c0,0,0,0,0,0
			c0,25.62,9.97,48.95,26.21,66.35c17.78,19.05,43.08,30.99,71.13,30.99c53.67,0,97.33-43.66,97.33-97.33
			C3102.82-1467.83,3090.88-1493.13,3071.84-1510.91z M2964.75-1484.49c2.49-8.31,8.73-14.98,16.75-18.31
			c9.81-4.07,20.96-6.32,32.96-4.67c42.35,5.83,53.5,39.23,53.5,39.23c-10.29-9.95-31.94-19.5-60.93-8.93s-33.2,38.28-33.2,38.28
			C2960.29-1456.5,2961.44-1473.44,2964.75-1484.49z M3018.19-1439.66c0,7.04-5.72,12.76-12.76,12.76
			c-7.04,0-12.76-5.72-12.76-12.76s5.72-12.76,12.76-12.76C3012.46-1452.42,3018.19-1446.69,3018.19-1439.66z M2962.83-1385.79
			c-8.35-6.57-15.77-15.19-20.19-26.46c-15.62-39.79,8.06-65.85,8.06-65.85c-3.65,13.84-1.39,37.4,22,57.52
			c23.39,20.12,49.63,10.24,49.63,10.24c-8.73,20.41-24.07,27.69-35.34,30.21C2978.53-1378.24,2969.65-1380.43,2962.83-1385.79z
			 M3073.5-1431.32c-1.12,10.57-4.49,21.43-11.68,31.17c-25.4,34.38-60.06,28.18-60.06,28.18c13.66-4.27,32.42-18.7,37.02-49.21
			c4.61-30.51-17.71-47.48-17.71-47.48c21.93-3.46,36.25,5.67,44.37,13.87C3071.55-1448.63,3074.42-1439.95,3073.5-1431.32z"/>
		<path class="st3" d="M3179.39-1501.81h-35.31v125.25h22.13v-46.9h12.3c21.61,0,31.09-15.46,31.09-40.58
			C3209.61-1487.93,3199.94-1501.81,3179.39-1501.81z M3175.35-1441.73h-9.13v-41.63h9.49c8.78,0,12.3,7.03,12.3,19.85
			C3188-1448.93,3183.78-1441.73,3175.35-1441.73z"/>
		<path class="st3" d="M3254.05-1404.66c0,6.67-3.86,12.65-9.48,12.65c-5.97,0-8.08-4.04-8.08-9.14v-68.86h-20.38v76.41
			c0,11.77,8.08,18.97,18.45,18.97c8.26,0,15.28-4.04,19.67-11.24h0.18v9.31h20.03v-93.45h-20.38V-1404.66z"/>
		<path class="st3" d="M3361.56-1472.12c-8.26,0-15.28,3.69-20.55,11.24h-0.18c-2.64-7.38-9.31-11.24-17.39-11.24
			c-8.08,0-15.11,3.69-19.5,10.89h-0.18v-8.78h-20.2v93.45h20.73v-65.52c0-6.67,3.69-12.65,9.31-12.65c5.8,0,7.91,4.22,7.91,9.31
			v68.86h20.73v-66.05c0-6.68,3.86-12.12,9.31-12.12c5.97,0,8.08,4.22,8.08,9.49v68.68h20.55v-76.76
			C3380.18-1464.92,3371.92-1472.12,3361.56-1472.12z"/>
		<path class="st3" d="M3427.26-1471.94c-6.32,0-14.23,3.86-18.09,10.72h-0.35v-8.78h-20.2v121.73h20.73v-34.61h0.17
			c3.69,5.45,10.01,8.08,15.81,8.08c14.05,0,21.96-9.84,21.96-22.13v-52.7C3447.28-1461.93,3441.49-1471.94,3427.26-1471.94z
			 M3426.73-1400.45c0,6.15-3.34,9.14-8.08,9.14c-5.09,0-9.31-4.04-9.31-10.89v-40.93c0-7.91,4.04-12.12,9.31-12.12
			c5.27,0,8.08,3.51,8.08,8.96V-1400.45z"/>
		<path class="st3" d="M3482.77-1472.12c-16.34,0-29.16,10.54-29.16,29.16v40.58c0,18.62,12.3,27.76,29.69,27.76
			c9.84,0,18.09-2.11,25.29-5.62l-3.86-14.93c-4.39,1.58-11.07,3.69-17.39,3.69c-8.43,0-13.17-4.57-13.17-13.35v-11.24h35.48v-28.81
			C3509.64-1461.23,3499.81-1472.12,3482.77-1472.12z M3491.2-1430.84h-17.04v-14.93c0-5.09,2.63-9.84,8.61-9.84
			c6.15,0,8.43,4.57,8.43,9.66V-1430.84z"/>
		<path class="st3" d="M3553.39-1501.81v37.77h-0.18c-4.04-5.62-10.01-8.08-16.16-8.08c-13.7,0-21.78,9.84-21.78,21.96v53.05
			c0,12.12,5.97,22.13,20.73,22.13c6.15,0,13.7-3.34,17.92-10.71h0.53l0.35,9.13h19.15v-125.25H3553.39z M3553.56-1404.31
			c0,7.2-4.39,12.65-9.84,12.65c-5.09,0-7.91-3.86-7.91-9.49v-45.14c0-6.68,3.34-9.66,8.08-9.66c4.92,0,9.66,4.74,9.66,11.59
			V-1404.31z"/>
	</g>
	<g>
		<path class="st5" d="M4329.05-1510.91c-17.4-16.24-40.72-26.21-66.35-26.21l0,0c-53.67,0-97.33,43.66-97.33,97.33c0,0,0,0,0,0
			c0,25.62,9.97,48.95,26.21,66.35c17.78,19.05,43.08,30.99,71.13,30.99c53.67,0,97.33-43.66,97.33-97.33
			C4360.04-1467.83,4348.1-1493.13,4329.05-1510.91z M4221.97-1484.49c2.49-8.31,8.73-14.98,16.75-18.31
			c9.81-4.07,20.96-6.32,32.96-4.67c42.35,5.83,53.5,39.23,53.5,39.23c-10.29-9.95-31.94-19.5-60.93-8.93s-33.2,38.28-33.2,38.28
			C4217.5-1456.5,4218.66-1473.44,4221.97-1484.49z M4275.4-1439.66c0,7.04-5.72,12.76-12.76,12.76c-7.04,0-12.76-5.72-12.76-12.76
			s5.72-12.76,12.76-12.76C4269.68-1452.42,4275.4-1446.69,4275.4-1439.66z M4220.05-1385.79c-8.35-6.57-15.77-15.19-20.19-26.46
			c-15.62-39.79,8.06-65.85,8.06-65.85c-3.65,13.84-1.39,37.4,22,57.52c23.39,20.12,49.63,10.24,49.63,10.24
			c-8.73,20.41-24.07,27.69-35.34,30.21C4235.74-1378.24,4226.87-1380.43,4220.05-1385.79z M4330.72-1431.32
			c-1.12,10.57-4.49,21.43-11.68,31.17c-25.4,34.38-60.06,28.18-60.06,28.18c13.66-4.27,32.42-18.7,37.02-49.21
			c4.61-30.51-17.71-47.48-17.71-47.48c21.93-3.46,36.25,5.67,44.37,13.87C4328.77-1448.63,4331.64-1439.95,4330.72-1431.32z"/>
		<path class="st5" d="M4436.61-1501.81h-35.31v125.25h22.13v-46.9h12.3c21.61,0,31.09-15.46,31.09-40.58
			C4466.82-1487.93,4457.16-1501.81,4436.61-1501.81z M4432.57-1441.73h-9.13v-41.63h9.49c8.78,0,12.3,7.03,12.3,19.85
			C4445.22-1448.93,4441-1441.73,4432.57-1441.73z"/>
		<path class="st5" d="M4511.27-1404.66c0,6.67-3.86,12.65-9.48,12.65c-5.97,0-8.08-4.04-8.08-9.14v-68.86h-20.38v76.41
			c0,11.77,8.08,18.97,18.45,18.97c8.26,0,15.28-4.04,19.67-11.24h0.18v9.31h20.03v-93.45h-20.38V-1404.66z"/>
		<path class="st5" d="M4618.77-1472.12c-8.26,0-15.28,3.69-20.55,11.24h-0.18c-2.64-7.38-9.31-11.24-17.39-11.24
			c-8.08,0-15.11,3.69-19.5,10.89h-0.18v-8.78h-20.2v93.45h20.73v-65.52c0-6.67,3.69-12.65,9.31-12.65c5.8,0,7.91,4.22,7.91,9.31
			v68.86h20.73v-66.05c0-6.68,3.86-12.12,9.31-12.12c5.97,0,8.08,4.22,8.08,9.49v68.68h20.55v-76.76
			C4637.39-1464.92,4629.14-1472.12,4618.77-1472.12z"/>
		<path class="st5" d="M4684.47-1471.94c-6.32,0-14.23,3.86-18.09,10.72h-0.35v-8.78h-20.2v121.73h20.73v-34.61h0.17
			c3.69,5.45,10.01,8.08,15.81,8.08c14.05,0,21.96-9.84,21.96-22.13v-52.7C4704.5-1461.93,4698.7-1471.94,4684.47-1471.94z
			 M4683.95-1400.45c0,6.15-3.34,9.14-8.08,9.14c-5.09,0-9.31-4.04-9.31-10.89v-40.93c0-7.91,4.04-12.12,9.31-12.12
			s8.08,3.51,8.08,8.96V-1400.45z"/>
		<path class="st5" d="M4739.99-1472.12c-16.34,0-29.16,10.54-29.16,29.16v40.58c0,18.62,12.3,27.76,29.69,27.76
			c9.84,0,18.09-2.11,25.29-5.62l-3.86-14.93c-4.39,1.58-11.07,3.69-17.39,3.69c-8.43,0-13.17-4.57-13.17-13.35v-11.24h35.48v-28.81
			C4766.86-1461.23,4757.02-1472.12,4739.99-1472.12z M4748.42-1430.84h-17.04v-14.93c0-5.09,2.63-9.84,8.61-9.84
			c6.15,0,8.43,4.57,8.43,9.66V-1430.84z"/>
		<path class="st5" d="M4810.6-1501.81v37.77h-0.18c-4.04-5.62-10.01-8.08-16.16-8.08c-13.7,0-21.78,9.84-21.78,21.96v53.05
			c0,12.12,5.97,22.13,20.73,22.13c6.15,0,13.7-3.34,17.92-10.71h0.53l0.35,9.13h19.15v-125.25H4810.6z M4810.78-1404.31
			c0,7.2-4.39,12.65-9.84,12.65c-5.09,0-7.91-3.86-7.91-9.49v-45.14c0-6.68,3.34-9.66,8.08-9.66c4.92,0,9.66,4.74,9.66,11.59
			V-1404.31z"/>
	</g>
	<g>
		<path class="st2" d="M4329.05-570.18c-17.4-16.24-40.72-26.21-66.35-26.21l0,0c-53.67,0-97.33,43.66-97.33,97.33c0,0,0,0,0,0
			c0,25.62,9.97,48.95,26.21,66.35c17.78,19.05,43.08,30.99,71.13,30.99c53.67,0,97.33-43.66,97.33-97.33
			C4360.04-527.1,4348.1-552.4,4329.05-570.18z M4221.97-543.77c2.49-8.31,8.73-14.98,16.75-18.31c9.81-4.07,20.96-6.32,32.96-4.67
			c42.35,5.83,53.5,39.23,53.5,39.23c-10.29-9.95-31.94-19.5-60.93-8.93c-28.99,10.56-33.2,38.28-33.2,38.28
			C4217.5-515.77,4218.66-532.71,4221.97-543.77z M4275.4-498.93c0,7.04-5.72,12.76-12.76,12.76c-7.04,0-12.76-5.72-12.76-12.76
			c0-7.04,5.72-12.76,12.76-12.76C4269.68-511.69,4275.4-505.97,4275.4-498.93z M4220.05-445.06c-8.35-6.57-15.77-15.19-20.19-26.46
			c-15.62-39.79,8.06-65.85,8.06-65.85c-3.65,13.84-1.39,37.4,22,57.52c23.39,20.12,49.63,10.24,49.63,10.24
			c-8.73,20.41-24.07,27.69-35.34,30.21C4235.74-437.51,4226.87-439.7,4220.05-445.06z M4330.72-490.6
			c-1.12,10.57-4.49,21.43-11.68,31.17c-25.4,34.38-60.06,28.18-60.06,28.18c13.66-4.27,32.42-18.7,37.02-49.21
			c4.61-30.51-17.71-47.48-17.71-47.48c21.93-3.46,36.25,5.67,44.37,13.87C4328.77-507.9,4331.64-499.22,4330.72-490.6z"/>
		<path class="st2" d="M4436.61-561.08h-35.31v125.25h22.13v-46.9h12.3c21.61,0,31.09-15.46,31.09-40.58
			C4466.82-547.2,4457.16-561.08,4436.61-561.08z M4432.57-501h-9.13v-41.63h9.49c8.78,0,12.3,7.03,12.3,19.85
			C4445.22-508.21,4441-501,4432.57-501z"/>
		<path class="st2" d="M4511.27-463.94c0,6.67-3.86,12.65-9.48,12.65c-5.97,0-8.08-4.04-8.08-9.14v-68.86h-20.38v76.41
			c0,11.77,8.08,18.97,18.45,18.97c8.26,0,15.28-4.04,19.67-11.24h0.18v9.31h20.03v-93.45h-20.38V-463.94z"/>
		<path class="st2" d="M4618.77-531.39c-8.26,0-15.28,3.69-20.55,11.24h-0.18c-2.64-7.38-9.31-11.24-17.39-11.24
			c-8.08,0-15.11,3.69-19.5,10.89h-0.18v-8.78h-20.2v93.45h20.73v-65.52c0-6.67,3.69-12.65,9.31-12.65c5.8,0,7.91,4.22,7.91,9.31
			v68.86h20.73v-66.05c0-6.68,3.86-12.12,9.31-12.12c5.97,0,8.08,4.22,8.08,9.49v68.68h20.55v-76.76
			C4637.39-524.19,4629.14-531.39,4618.77-531.39z"/>
		<path class="st2" d="M4684.47-531.22c-6.32,0-14.23,3.86-18.09,10.72h-0.35v-8.78h-20.2v121.73h20.73v-34.61h0.17
			c3.69,5.45,10.01,8.08,15.81,8.08c14.05,0,21.96-9.84,21.96-22.13v-52.7C4704.5-521.2,4698.7-531.22,4684.47-531.22z
			 M4683.95-459.72c0,6.15-3.34,9.14-8.08,9.14c-5.09,0-9.31-4.04-9.31-10.89v-40.93c0-7.91,4.04-12.12,9.31-12.12
			s8.08,3.51,8.08,8.96V-459.72z"/>
		<path class="st2" d="M4739.99-531.39c-16.34,0-29.16,10.54-29.16,29.16v40.58c0,18.62,12.3,27.76,29.69,27.76
			c9.84,0,18.09-2.11,25.29-5.62l-3.86-14.93c-4.39,1.58-11.07,3.69-17.39,3.69c-8.43,0-13.17-4.57-13.17-13.35v-11.24h35.48v-28.81
			C4766.86-520.5,4757.02-531.39,4739.99-531.39z M4748.42-490.11h-17.04v-14.93c0-5.09,2.63-9.84,8.61-9.84
			c6.15,0,8.43,4.57,8.43,9.66V-490.11z"/>
		<path class="st2" d="M4810.6-561.08v37.77h-0.18c-4.04-5.62-10.01-8.08-16.16-8.08c-13.7,0-21.78,9.84-21.78,21.96v53.05
			c0,12.12,5.97,22.13,20.73,22.13c6.15,0,13.7-3.34,17.92-10.71h0.53l0.35,9.13h19.15v-125.25H4810.6z M4810.78-463.59
			c0,7.2-4.39,12.65-9.84,12.65c-5.09,0-7.91-3.86-7.91-9.49v-45.14c0-6.68,3.34-9.66,8.08-9.66c4.92,0,9.66,4.74,9.66,11.59
			V-463.59z"/>
	</g>
	<g>
		<path class="st0" d="M3071.84-570.18c-17.4-16.24-40.72-26.21-66.35-26.21l0,0c-53.67,0-97.33,43.66-97.33,97.33c0,0,0,0,0,0
			c0,25.62,9.97,48.95,26.21,66.35c17.78,19.05,43.08,30.99,71.13,30.99c53.67,0,97.33-43.66,97.33-97.33
			C3102.82-527.1,3090.88-552.4,3071.84-570.18z M2964.75-543.77c2.49-8.31,8.73-14.98,16.75-18.31c9.81-4.07,20.96-6.32,32.96-4.67
			c42.35,5.83,53.5,39.23,53.5,39.23c-10.29-9.95-31.94-19.5-60.93-8.93c-28.99,10.56-33.2,38.28-33.2,38.28
			C2960.29-515.77,2961.44-532.71,2964.75-543.77z M3018.19-498.93c0,7.04-5.72,12.76-12.76,12.76c-7.04,0-12.76-5.72-12.76-12.76
			c0-7.04,5.72-12.76,12.76-12.76C3012.46-511.69,3018.19-505.97,3018.19-498.93z M2962.83-445.06
			c-8.35-6.57-15.77-15.19-20.19-26.46c-15.62-39.79,8.06-65.85,8.06-65.85c-3.65,13.84-1.39,37.4,22,57.52
			c23.39,20.12,49.63,10.24,49.63,10.24c-8.73,20.41-24.07,27.69-35.34,30.21C2978.53-437.51,2969.65-439.7,2962.83-445.06z
			 M3073.5-490.6c-1.12,10.57-4.49,21.43-11.68,31.17c-25.4,34.38-60.06,28.18-60.06,28.18c13.66-4.27,32.42-18.7,37.02-49.21
			c4.61-30.51-17.71-47.48-17.71-47.48c21.93-3.46,36.25,5.67,44.37,13.87C3071.55-507.9,3074.42-499.22,3073.5-490.6z"/>
		<path class="st0" d="M3179.39-561.08h-35.31v125.25h22.13v-46.9h12.3c21.61,0,31.09-15.46,31.09-40.58
			C3209.61-547.2,3199.94-561.08,3179.39-561.08z M3175.35-501h-9.13v-41.63h9.49c8.78,0,12.3,7.03,12.3,19.85
			C3188-508.21,3183.78-501,3175.35-501z"/>
		<path class="st0" d="M3254.05-463.94c0,6.67-3.86,12.65-9.48,12.65c-5.97,0-8.08-4.04-8.08-9.14v-68.86h-20.38v76.41
			c0,11.77,8.08,18.97,18.45,18.97c8.26,0,15.28-4.04,19.67-11.24h0.18v9.31h20.03v-93.45h-20.38V-463.94z"/>
		<path class="st0" d="M3361.56-531.39c-8.26,0-15.28,3.69-20.55,11.24h-0.18c-2.64-7.38-9.31-11.24-17.39-11.24
			c-8.08,0-15.11,3.69-19.5,10.89h-0.18v-8.78h-20.2v93.45h20.73v-65.52c0-6.67,3.69-12.65,9.31-12.65c5.8,0,7.91,4.22,7.91,9.31
			v68.86h20.73v-66.05c0-6.68,3.86-12.12,9.31-12.12c5.97,0,8.08,4.22,8.08,9.49v68.68h20.55v-76.76
			C3380.18-524.19,3371.92-531.39,3361.56-531.39z"/>
		<path class="st0" d="M3427.26-531.22c-6.32,0-14.23,3.86-18.09,10.72h-0.35v-8.78h-20.2v121.73h20.73v-34.61h0.17
			c3.69,5.45,10.01,8.08,15.81,8.08c14.05,0,21.96-9.84,21.96-22.13v-52.7C3447.28-521.2,3441.49-531.22,3427.26-531.22z
			 M3426.73-459.72c0,6.15-3.34,9.14-8.08,9.14c-5.09,0-9.31-4.04-9.31-10.89v-40.93c0-7.91,4.04-12.12,9.31-12.12
			c5.27,0,8.08,3.51,8.08,8.96V-459.72z"/>
		<path class="st0" d="M3482.77-531.39c-16.34,0-29.16,10.54-29.16,29.16v40.58c0,18.62,12.3,27.76,29.69,27.76
			c9.84,0,18.09-2.11,25.29-5.62l-3.86-14.93c-4.39,1.58-11.07,3.69-17.39,3.69c-8.43,0-13.17-4.57-13.17-13.35v-11.24h35.48v-28.81
			C3509.64-520.5,3499.81-531.39,3482.77-531.39z M3491.2-490.11h-17.04v-14.93c0-5.09,2.63-9.84,8.61-9.84
			c6.15,0,8.43,4.57,8.43,9.66V-490.11z"/>
		<path class="st0" d="M3553.39-561.08v37.77h-0.18c-4.04-5.62-10.01-8.08-16.16-8.08c-13.7,0-21.78,9.84-21.78,21.96v53.05
			c0,12.12,5.97,22.13,20.73,22.13c6.15,0,13.7-3.34,17.92-10.71h0.53l0.35,9.13h19.15v-125.25H3553.39z M3553.56-463.59
			c0,7.2-4.39,12.65-9.84,12.65c-5.09,0-7.91-3.86-7.91-9.49v-45.14c0-6.68,3.34-9.66,8.08-9.66c4.92,0,9.66,4.74,9.66,11.59
			V-463.59z"/>
	</g>
	<g>
		<path class="st1" d="M3071.84,349.82c-17.4-16.24-40.72-26.21-66.35-26.21l0,0c-53.67,0-97.33,43.66-97.33,97.33c0,0,0,0,0,0
			c0,25.62,9.97,48.95,26.21,66.35c17.78,19.05,43.08,30.99,71.13,30.99c53.67,0,97.33-43.66,97.33-97.33
			C3102.82,392.9,3090.88,367.6,3071.84,349.82z M2964.75,376.23c2.49-8.31,8.73-14.98,16.75-18.31c9.81-4.07,20.96-6.32,32.96-4.67
			c42.35,5.83,53.5,39.23,53.5,39.23c-10.29-9.95-31.94-19.5-60.93-8.93c-28.99,10.56-33.2,38.28-33.2,38.28
			C2960.29,404.23,2961.44,387.29,2964.75,376.23z M3018.19,421.07c0,7.04-5.72,12.76-12.76,12.76c-7.04,0-12.76-5.72-12.76-12.76
			c0-7.04,5.72-12.76,12.76-12.76C3012.46,408.31,3018.19,414.03,3018.19,421.07z M2962.83,474.94
			c-8.35-6.57-15.77-15.19-20.19-26.46c-15.62-39.79,8.06-65.85,8.06-65.85c-3.65,13.84-1.39,37.4,22,57.52
			c23.39,20.12,49.63,10.24,49.63,10.24c-8.73,20.41-24.07,27.69-35.34,30.21C2978.53,482.49,2969.65,480.3,2962.83,474.94z
			 M3073.5,429.4c-1.12,10.57-4.49,21.43-11.68,31.17c-25.4,34.38-60.06,28.18-60.06,28.18c13.66-4.27,32.42-18.7,37.02-49.21
			c4.61-30.51-17.71-47.48-17.71-47.48c21.93-3.46,36.25,5.67,44.37,13.87C3071.55,412.1,3074.42,420.78,3073.5,429.4z"/>
		<path class="st1" d="M3179.39,358.92h-35.31v125.25h22.13v-46.9h12.3c21.61,0,31.09-15.46,31.09-40.58
			C3209.61,372.8,3199.94,358.92,3179.39,358.92z M3175.35,419h-9.13v-41.63h9.49c8.78,0,12.3,7.03,12.3,19.85
			C3188,411.79,3183.78,419,3175.35,419z"/>
		<path class="st1" d="M3254.05,456.06c0,6.67-3.86,12.65-9.48,12.65c-5.97,0-8.08-4.04-8.08-9.14v-68.86h-20.38v76.41
			c0,11.77,8.08,18.97,18.45,18.97c8.26,0,15.28-4.04,19.67-11.24h0.18v9.31h20.03v-93.45h-20.38V456.06z"/>
		<path class="st1" d="M3361.56,388.61c-8.26,0-15.28,3.69-20.55,11.24h-0.18c-2.64-7.38-9.31-11.24-17.39-11.24
			c-8.08,0-15.11,3.69-19.5,10.89h-0.18v-8.78h-20.2v93.45h20.73v-65.52c0-6.67,3.69-12.65,9.31-12.65c5.8,0,7.91,4.22,7.91,9.31
			v68.86h20.73v-66.05c0-6.68,3.86-12.12,9.31-12.12c5.97,0,8.08,4.22,8.08,9.49v68.68h20.55V407.4
			C3380.18,395.81,3371.92,388.61,3361.56,388.61z"/>
		<path class="st1" d="M3427.26,388.78c-6.32,0-14.23,3.86-18.09,10.72h-0.35v-8.78h-20.2v121.73h20.73v-34.61h0.17
			c3.69,5.45,10.01,8.08,15.81,8.08c14.05,0,21.96-9.84,21.96-22.13v-52.7C3447.28,398.8,3441.49,388.78,3427.26,388.78z
			 M3426.73,460.28c0,6.15-3.34,9.14-8.08,9.14c-5.09,0-9.31-4.04-9.31-10.89v-40.93c0-7.91,4.04-12.12,9.31-12.12
			c5.27,0,8.08,3.51,8.08,8.96V460.28z"/>
		<path class="st1" d="M3482.77,388.61c-16.34,0-29.16,10.54-29.16,29.16v40.58c0,18.62,12.3,27.76,29.69,27.76
			c9.84,0,18.09-2.11,25.29-5.62l-3.86-14.93c-4.39,1.58-11.07,3.69-17.39,3.69c-8.43,0-13.17-4.57-13.17-13.35v-11.24h35.48v-28.81
			C3509.64,399.5,3499.81,388.61,3482.77,388.61z M3491.2,429.89h-17.04v-14.93c0-5.09,2.63-9.84,8.61-9.84
			c6.15,0,8.43,4.57,8.43,9.66V429.89z"/>
		<path class="st1" d="M3553.39,358.92v37.77h-0.18c-4.04-5.62-10.01-8.08-16.16-8.08c-13.7,0-21.78,9.84-21.78,21.96v53.05
			c0,12.12,5.97,22.13,20.73,22.13c6.15,0,13.7-3.34,17.92-10.71h0.53l0.35,9.13h19.15V358.92H3553.39z M3553.56,456.41
			c0,7.2-4.39,12.65-9.84,12.65c-5.09,0-7.91-3.86-7.91-9.49v-45.14c0-6.68,3.34-9.66,8.08-9.66c4.92,0,9.66,4.74,9.66,11.59V456.41
			z"/>
	</g>
</g>
</svg>
