<?xml version="1.0" encoding="utf-8"?>
<!-- Generator: Adobe Illustrator 22.0.1, SVG Export Plug-In . SVG Version: 6.00 Build 0)  -->
<svg version="1.1" id="Layer_1" xmlns="http://www.w3.org/2000/svg" xmlns:xlink="http://www.w3.org/1999/xlink" x="0px" y="0px"
	 viewBox="0 0 1366 768" style="enable-background:new 0 0 1366 768;" xml:space="preserve">
<style type="text/css">
	.st0{clip-path:url(#SVGID_2_);}
	.st1{fill:#0E7DB9;}
	.st2{fill:#18B0F5;}
	.st3{fill:#FFFFFF;}
	.st4{fill:#1196DE;}
	.st5{fill:#40BEF7;}
	.st6{fill:none;stroke:#18B0F5;stroke-width:3;stroke-linecap:round;stroke-linejoin:round;stroke-miterlimit:10;}
</style>
<g>
	<g>
		<defs>
			<path id="SVGID_1_" d="M1033.3,697.7H428.6c-15.3,0-27.7-12.4-27.7-27.7V65.2c0-15.3,12.4-27.7,27.7-27.7h604.7
				c15.3,0,27.7,12.4,27.7,27.7V670C1061,685.3,1048.6,697.7,1033.3,697.7z"/>
		</defs>
		<clipPath id="SVGID_2_">
			<use xlink:href="#SVGID_1_"  style="overflow:visible;"/>
		</clipPath>
		<g class="st0">
			<rect x="731" y="367.3" class="st1" width="330" height="330"/>
			<g>
				<rect x="401" y="37.8" class="st2" width="330" height="330"/>
				<g>
					<path class="st3" d="M502.5,139.3c17.6-17.6,38.8-26.4,63.5-26.4c24.8,0,45.9,8.8,63.5,26.4s26.4,38.8,26.4,63.5
						c0,24.8-8.8,45.9-26.4,63.5s-38.8,26.4-63.5,26.4c-24.8,0-45.9-8.8-63.5-26.4s-26.4-38.8-26.4-63.5S484.9,156.9,502.5,139.3z
						 M515.1,253.7c14.2,14.2,31.2,21.3,50.9,21.3c19.7,0,36.6-7.1,50.9-21.3c14.2-14.2,21.3-31.2,21.3-50.9c0-6.2-1-12.9-3-20.3
						c-5.3,1.4-12.1,2.1-20.3,2.1c-31,0-55.4-12.7-73.4-38c-9.3,22.5-25,38.7-47.3,48.5c-0.3,1.7-0.4,4.2-0.4,7.6
						C493.8,222.5,500.9,239.5,515.1,253.7z M530.9,203.9c2.2-2.1,4.9-3.2,8-3.2s5.8,1.1,8,3.2c2.2,2.1,3.4,4.7,3.4,7.8
						c0,3.1-1.1,5.8-3.4,8c-2.3,2.3-4.9,3.4-8,3.4s-5.8-1.1-8-3.4c-2.3-2.2-3.4-4.9-3.4-8C527.6,208.6,528.7,206,530.9,203.9z
						 M585,203.9c2.2-2.1,4.9-3.2,8-3.2s5.8,1.1,8,3.2c2.2,2.1,3.4,4.7,3.4,7.8c0,3.1-1.1,5.8-3.4,8c-2.3,2.3-4.9,3.4-8,3.4
						s-5.8-1.1-8-3.4c-2.3-2.2-3.4-4.9-3.4-8C581.6,208.6,582.7,206,585,203.9z"/>
				</g>
			</g>
			<g>
				<rect x="731" y="37.8" class="st4" width="330" height="330"/>
				<g>
					<path class="st3" d="M896,254.5l-55.7,33.8l14.8-63.3l-49-42.6l64.6-5.5l25.3-59.5l25.3,59.5l64.6,5.5l-49,42.6l14.8,63.3
						L896,254.5z"/>
				</g>
			</g>
			<g>
				<rect x="401" y="367.3" class="st5" width="330" height="330"/>
				<g>
					<path class="st3" d="M502.5,468.8c17.6-17.6,38.8-26.4,63.5-26.4c24.8,0,45.9,8.8,63.5,26.4s26.4,38.8,26.4,63.5
						c0,24.8-8.8,45.9-26.4,63.5c-17.6,17.6-38.8,26.4-63.5,26.4c-24.8,0-45.9-8.8-63.5-26.4c-17.6-17.6-26.4-38.8-26.4-63.5
						C476.1,507.6,484.9,486.4,502.5,468.8z M515.1,583.2c14.2,14.2,31.2,21.3,50.9,21.3c19.7,0,36.6-7.1,50.9-21.3
						c14.2-14.2,21.3-31.2,21.3-50.9c0-6.2-1-12.9-3-20.3c-5.3,1.4-12.1,2.1-20.3,2.1c-31,0-55.4-12.7-73.4-38
						c-9.3,22.5-25,38.7-47.3,48.5c-0.3,1.7-0.4,4.2-0.4,7.6C493.8,552,500.9,569,515.1,583.2z M530.9,533.4c2.2-2.1,4.9-3.2,8-3.2
						s5.8,1.1,8,3.2c2.2,2.1,3.4,4.7,3.4,7.8s-1.1,5.8-3.4,8c-2.3,2.3-4.9,3.4-8,3.4s-5.8-1.1-8-3.4c-2.3-2.2-3.4-4.9-3.4-8
						C527.6,538,528.7,535.5,530.9,533.4z M585,533.4c2.2-2.1,4.9-3.2,8-3.2s5.8,1.1,8,3.2c2.2,2.1,3.4,4.7,3.4,7.8s-1.1,5.8-3.4,8
						c-2.3,2.3-4.9,3.4-8,3.4s-5.8-1.1-8-3.4c-2.3-2.2-3.4-4.9-3.4-8C581.6,538,582.7,535.5,585,533.4z"/>
				</g>
			</g>
		</g>
	</g>
</g>
<g>
	<circle class="st3" cx="900.5" cy="539.2" r="219.5"/>
	<g>
		<path class="st2" d="M860,536c-3.3,0-6.2,1.1-8.6,3.4s-3.6,5.1-3.6,8.4s1.2,6.2,3.6,8.6c2.4,2.4,5.3,3.6,8.6,3.6
			c3.3,0,6.2-1.2,8.6-3.6c2.4-2.4,3.6-5.3,3.6-8.6c0-3.3-1.2-6.1-3.6-8.4S863.4,536,860,536z"/>
		<path class="st2" d="M940.2,536c-3.3,0-6.2,1.1-8.6,3.4s-3.6,5.1-3.6,8.4s1.2,6.2,3.6,8.6c2.4,2.4,5.3,3.6,8.6,3.6
			c3.3,0,6.2-1.2,8.6-3.6c2.4-2.4,3.6-5.3,3.6-8.6c0-3.3-1.2-6.1-3.6-8.4C946.4,537.2,943.6,536,940.2,536z"/>
		<path class="st6" d="M864.3,602.2c0,0,34.7,25.2,72.5,0"/>
		<path class="st2" d="M900.5,403.7c-74.8,0-135.5,60.7-135.5,135.5s60.7,135.5,135.5,135.5S1036,614,1036,539.2
			S975.3,403.7,900.5,403.7z M988.7,572.3c0,0-18.9,75.6-91.4,72.5c0,0-72.5,0-88.2-72.5c0,0-28.4,0-25.2-34.7c0,0,0-22.1,25.2-25.2
			c0,0,31.5-18.9,44.1-56.7c0,0,25.2,59.9,138.7,59.9c0,0,22.1,3.2,22.1,31.5C1013.9,547,1013.9,572.3,988.7,572.3z"/>
	</g>
</g>
</svg>
